<?xml version="1.0" encoding="UTF-8" standalone="no"?>
<!DOCTYPE svg PUBLIC "-//W3C//DTD SVG 1.1//EN"
 "http://www.w3.org/Graphics/SVG/1.1/DTD/svg11.dtd">
<!-- Generated by graphviz version 2.36.0 (20140111.2315)
 -->
<!-- Title: Matis Pages: 1 -->
<svg width="884pt" height="1122pt"
 viewBox="0.00 0.00 883.90 1122.00" xmlns="http://www.w3.org/2000/svg" xmlns:xlink="http://www.w3.org/1999/xlink">
<g id="graph0" class="graph" transform="scale(1 1) rotate(0) translate(4 1118)">
<title>Matis</title>
<polygon fill="white" stroke="none" points="-4,4 -4,-1118 879.898,-1118 879.898,4 -4,4"/>
<!-- T1 -->
<g id="node1" class="node"><title>T1</title>
<polygon fill="none" stroke="black" points="745.5,-1044.5 745.5,-1113.5 820.5,-1113.5 820.5,-1044.5 745.5,-1044.5"/>
<text text-anchor="middle" x="783" y="-1098.3" font-family="Times,serif" font-size="14.00">path</text>
<polyline fill="none" stroke="black" points="745.5,-1090.5 820.5,-1090.5 "/>
<text text-anchor="middle" x="783" y="-1075.3" font-family="Times,serif" font-size="14.00">list&#45;tools&#45;1</text>
<polyline fill="none" stroke="black" points="745.5,-1067.5 820.5,-1067.5 "/>
<text text-anchor="middle" x="783" y="-1052.3" font-family="Times,serif" font-size="14.00">files</text>
</g>
<!-- T2 -->
<g id="node2" class="node"><title>T2</title>
<polygon fill="none" stroke="black" points="657.5,-928.5 657.5,-997.5 746.5,-997.5 746.5,-928.5 657.5,-928.5"/>
<text text-anchor="middle" x="702" y="-982.3" font-family="Times,serif" font-size="14.00">text</text>
<polyline fill="none" stroke="black" points="657.5,-974.5 746.5,-974.5 "/>
<text text-anchor="middle" x="702" y="-959.3" font-family="Times,serif" font-size="14.00">foreach&#45;js&#45;10</text>
<polyline fill="none" stroke="black" points="657.5,-951.5 746.5,-951.5 "/>
<text text-anchor="middle" x="702" y="-936.3" font-family="Times,serif" font-size="14.00">path</text>
</g>
<!-- T1&#45;&gt;T2 -->
<g id="edge22" class="edge"><title>T1:O0&#45;&gt;T2:I0</title>
<path fill="none" stroke="black" d="M744,-1056C732.01,-1056 750.069,-1014.55 751.929,-995.441"/>
<polygon fill="black" stroke="black" points="755.074,-993.887 748,-986 748.611,-996.577 755.074,-993.887"/>
<text text-anchor="middle" x="750.5" y="-1018.8" font-family="Times,serif" font-size="9.00">1</text>
</g>
<!-- S1 -->
<g id="node24" class="node"><title>S1</title>
<ellipse fill="none" stroke="grey" cx="783" cy="-963" rx="18" ry="18"/>
<text text-anchor="middle" x="783" y="-960.8" font-family="Times,serif" font-size="9.00" fill="grey">1</text>
</g>
<!-- T1&#45;&gt;S1 -->
<g id="edge1" class="edge"><title>T1:T&#45;&gt;S1</title>
<path fill="none" stroke="grey" d="M822,-1079C860.899,-1079 823.466,-1019.26 799.525,-985.895"/>
<polygon fill="grey" stroke="grey" points="802.221,-983.652 793.495,-977.644 796.57,-987.782 802.221,-983.652"/>
</g>
<!-- T3 -->
<g id="node3" class="node"><title>T3</title>
<polygon fill="none" stroke="black" points="776,-812.5 776,-881.5 858,-881.5 858,-812.5 776,-812.5"/>
<text text-anchor="middle" x="817" y="-866.3" font-family="Times,serif" font-size="14.00">void</text>
<polyline fill="none" stroke="black" points="776,-858.5 858,-858.5 "/>
<text text-anchor="middle" x="817" y="-843.3" font-family="Times,serif" font-size="14.00">doc&#45;path&#45;21</text>
<polyline fill="none" stroke="black" points="776,-835.5 858,-835.5 "/>
<text text-anchor="middle" x="817" y="-820.3" font-family="Times,serif" font-size="14.00">value</text>
</g>
<!-- T2&#45;&gt;T3 -->
<g id="edge23" class="edge"><title>T2:O0&#45;&gt;T3:I0</title>
<path fill="none" stroke="black" d="M748,-940C754.41,-940 751.601,-932.662 756,-928 776.572,-906.197 808.362,-913.503 815.531,-892.152"/>
<polygon fill="black" stroke="black" points="819.032,-892.398 817,-882 812.104,-891.396 819.032,-892.398"/>
<text text-anchor="middle" x="813.5" y="-902.8" font-family="Times,serif" font-size="9.00">1</text>
</g>
<!-- T16 -->
<g id="node16" class="node"><title>T16</title>
<polygon fill="none" stroke="black" points="492,-812.5 492,-881.5 572,-881.5 572,-812.5 492,-812.5"/>
<text text-anchor="middle" x="532" y="-866.3" font-family="Times,serif" font-size="14.00">text</text>
<polyline fill="none" stroke="black" points="492,-858.5 572,-858.5 "/>
<text text-anchor="middle" x="532" y="-843.3" font-family="Times,serif" font-size="14.00">filter&#45;tool&#45;2</text>
<polyline fill="none" stroke="black" points="492,-835.5 572,-835.5 "/>
<text text-anchor="middle" x="513" y="-820.3" font-family="Times,serif" font-size="14.00">yes</text>
<polyline fill="none" stroke="black" points="534,-812.5 534,-835.5 "/>
<text text-anchor="middle" x="553" y="-820.3" font-family="Times,serif" font-size="14.00">no</text>
</g>
<!-- T2&#45;&gt;T16 -->
<g id="edge24" class="edge"><title>T2:I0&#45;&gt;T16:I0</title>
<path fill="none" stroke="blue" stroke-width="2" d="M656,-986C596.321,-986 631.63,-883.195 583.083,-871.148"/>
<polygon fill="blue" stroke="blue" stroke-width="2" points="583.332,-867.654 573,-870 582.54,-874.609 583.332,-867.654"/>
</g>
<!-- S2 -->
<g id="node25" class="node"><title>S2</title>
<ellipse fill="none" stroke="grey" cx="702" cy="-847" rx="18" ry="18"/>
<text text-anchor="middle" x="702" y="-844.8" font-family="Times,serif" font-size="9.00" fill="grey">1</text>
</g>
<!-- T2&#45;&gt;S2 -->
<g id="edge2" class="edge"><title>T2:T&#45;&gt;S2</title>
<path fill="none" stroke="grey" d="M748,-963C763.562,-963 751.999,-942.737 747,-928 743.83,-918.655 739.166,-918.408 734,-910 726.668,-898.067 719.431,-884.265 713.699,-872.718"/>
<polygon fill="grey" stroke="grey" points="716.8,-871.091 709.269,-863.638 710.509,-874.16 716.8,-871.091"/>
</g>
<!-- T4 -->
<g id="node4" class="node"><title>T4</title>
<polygon fill="none" stroke="black" points="695,-696.5 695,-765.5 781,-765.5 781,-696.5 695,-696.5"/>
<text text-anchor="middle" x="738" y="-750.3" font-family="Times,serif" font-size="14.00">path</text>
<polyline fill="none" stroke="black" points="695,-742.5 781,-742.5 "/>
<text text-anchor="middle" x="738" y="-727.3" font-family="Times,serif" font-size="14.00">list&#45;pages&#45;22</text>
<polyline fill="none" stroke="black" points="695,-719.5 781,-719.5 "/>
<text text-anchor="middle" x="738" y="-704.3" font-family="Times,serif" font-size="14.00">files</text>
</g>
<!-- T3&#45;&gt;T4 -->
<g id="edge26" class="edge"><title>T3:O0&#45;&gt;T4:I0</title>
<path fill="none" stroke="black" d="M775,-824C768.968,-824 749.418,-792.647 741.439,-775.665"/>
<polygon fill="black" stroke="black" points="744.65,-774.248 738,-766 738.055,-776.595 744.65,-774.248"/>
<text text-anchor="middle" x="753.5" y="-786.8" font-family="Times,serif" font-size="9.00">1</text>
</g>
<!-- S11 -->
<g id="node34" class="node"><title>S11</title>
<ellipse fill="none" stroke="grey" cx="817" cy="-731" rx="18" ry="18"/>
<text text-anchor="middle" x="817" y="-728.8" font-family="Times,serif" font-size="9.00" fill="grey">1</text>
</g>
<!-- T3&#45;&gt;S11 -->
<g id="edge11" class="edge"><title>T3:T&#45;&gt;S11</title>
<path fill="none" stroke="grey" d="M859,-847C898.218,-847 859.085,-787.26 834.171,-753.895"/>
<polygon fill="grey" stroke="grey" points="836.737,-751.487 827.899,-745.644 831.164,-755.723 836.737,-751.487"/>
</g>
<!-- T5 -->
<g id="node5" class="node"><title>T5</title>
<polygon fill="none" stroke="black" points="604,-580.5 604,-649.5 702,-649.5 702,-580.5 604,-580.5"/>
<text text-anchor="middle" x="653" y="-634.3" font-family="Times,serif" font-size="14.00">any</text>
<polyline fill="none" stroke="black" points="604,-626.5 702,-626.5 "/>
<text text-anchor="middle" x="653" y="-611.3" font-family="Times,serif" font-size="14.00">foreach&#45;md&#45;23</text>
<polyline fill="none" stroke="black" points="604,-603.5 702,-603.5 "/>
<text text-anchor="middle" x="653" y="-588.3" font-family="Times,serif" font-size="14.00">path</text>
</g>
<!-- T4&#45;&gt;T5 -->
<g id="edge27" class="edge"><title>T4:O0&#45;&gt;T5:I0</title>
<path fill="none" stroke="black" d="M694,-708C681.992,-708 702.84,-666.967 706.234,-647.733"/>
<polygon fill="black" stroke="black" points="709.475,-646.386 703,-638 702.832,-648.594 709.475,-646.386"/>
<text text-anchor="middle" x="702.5" y="-670.8" font-family="Times,serif" font-size="9.00">1</text>
</g>
<!-- S12 -->
<g id="node35" class="node"><title>S12</title>
<ellipse fill="none" stroke="grey" cx="738" cy="-615" rx="18" ry="18"/>
<text text-anchor="middle" x="738" y="-612.8" font-family="Times,serif" font-size="9.00" fill="grey">1</text>
</g>
<!-- T4&#45;&gt;S12 -->
<g id="edge12" class="edge"><title>T4:T&#45;&gt;S12</title>
<path fill="none" stroke="grey" d="M782,-731C797.562,-731 785.014,-711.035 781,-696 775.51,-675.436 763.854,-654.316 754.062,-638.943"/>
<polygon fill="grey" stroke="grey" points="756.704,-636.592 748.277,-630.171 750.86,-640.446 756.704,-636.592"/>
</g>
<!-- T6 -->
<g id="node6" class="node"><title>T6</title>
<polygon fill="none" stroke="black" points="559,-464.5 559,-533.5 617,-533.5 617,-464.5 559,-464.5"/>
<text text-anchor="middle" x="588" y="-518.3" font-family="Times,serif" font-size="14.00">any</text>
<polyline fill="none" stroke="black" points="559,-510.5 617,-510.5 "/>
<text text-anchor="middle" x="588" y="-495.3" font-family="Times,serif" font-size="14.00">start&#45;11</text>
<polyline fill="none" stroke="black" points="559,-487.5 617,-487.5 "/>
<text text-anchor="middle" x="588" y="-472.3" font-family="Times,serif" font-size="14.00">any</text>
</g>
<!-- T5&#45;&gt;T6 -->
<g id="edge28" class="edge"><title>T5:I0&#45;&gt;T6:I0</title>
<path fill="none" stroke="blue" stroke-width="2" d="M603,-638C582.386,-638 586.478,-575.145 587.72,-544.348"/>
<polygon fill="blue" stroke="blue" stroke-width="2" points="591.229,-544.091 588,-534 584.231,-543.902 591.229,-544.091"/>
</g>
<!-- S13 -->
<g id="node36" class="node"><title>S13</title>
<ellipse fill="red" stroke="red" cx="653" cy="-499" rx="18" ry="18"/>
<text text-anchor="middle" x="653" y="-501.8" font-family="Times,serif" font-size="9.00" fill="white">+1</text>
<text text-anchor="middle" x="653" y="-491.8" font-family="Times,serif" font-size="9.00" fill="white">&#45;0</text>
</g>
<!-- T5&#45;&gt;S13 -->
<g id="edge13" class="edge"><title>T5:T&#45;&gt;S13</title>
<path fill="none" stroke="grey" d="M703,-615C718.562,-615 706.436,-594.916 702,-580 695.596,-558.467 681.869,-536.914 670.568,-521.614"/>
<polygon fill="grey" stroke="grey" points="673.123,-519.193 664.269,-513.375 667.563,-523.445 673.123,-519.193"/>
</g>
<!-- T7 -->
<g id="node7" class="node"><title>T7</title>
<polygon fill="none" stroke="black" points="624.5,-348.5 624.5,-417.5 713.5,-417.5 713.5,-348.5 624.5,-348.5"/>
<text text-anchor="middle" x="669" y="-402.3" font-family="Times,serif" font-size="14.00">path</text>
<polyline fill="none" stroke="black" points="624.5,-394.5 713.5,-394.5 "/>
<text text-anchor="middle" x="669" y="-379.3" font-family="Times,serif" font-size="14.00">basename&#45;15</text>
<polyline fill="none" stroke="black" points="624.5,-371.5 713.5,-371.5 "/>
<text text-anchor="middle" x="669" y="-356.3" font-family="Times,serif" font-size="14.00">basename</text>
</g>
<!-- T6&#45;&gt;T7 -->
<g id="edge32" class="edge"><title>T6:O0&#45;&gt;T7:I0</title>
<path fill="none" stroke="black" d="M618,-476C624.41,-476 622.02,-469.025 626,-464 640.932,-445.147 661.956,-445.394 667.574,-428.074"/>
<polygon fill="black" stroke="black" points="671.064,-428.392 669,-418 664.133,-427.411 671.064,-428.392"/>
<text text-anchor="middle" x="668" y="-438.8" font-family="Times,serif" font-size="9.00">22</text>
</g>
<!-- T11 -->
<g id="node11" class="node"><title>T11</title>
<polygon fill="none" stroke="black" points="289,-348.5 289,-417.5 399,-417.5 399,-348.5 289,-348.5"/>
<text text-anchor="middle" x="344" y="-402.3" font-family="Times,serif" font-size="14.00">path</text>
<polyline fill="none" stroke="black" points="289,-394.5 399,-394.5 "/>
<text text-anchor="middle" x="344" y="-379.3" font-family="Times,serif" font-size="14.00">load&#45;md&#45;code&#45;12</text>
<polyline fill="none" stroke="black" points="289,-371.5 399,-371.5 "/>
<text text-anchor="middle" x="344" y="-356.3" font-family="Times,serif" font-size="14.00">text</text>
</g>
<!-- T6&#45;&gt;T11 -->
<g id="edge31" class="edge"><title>T6:O0&#45;&gt;T11:I0</title>
<path fill="none" stroke="black" d="M558,-476C529.542,-476 533.666,-448.294 508,-436 474.74,-420.069 462.024,-429.546 427,-418 418.621,-415.238 415.241,-410.77 409.942,-408.136"/>
<polygon fill="black" stroke="black" points="410.512,-404.679 400,-406 409.042,-411.522 410.512,-404.679"/>
<text text-anchor="middle" x="527" y="-438.8" font-family="Times,serif" font-size="9.00">22</text>
</g>
<!-- T14 -->
<g id="node14" class="node"><title>T14</title>
<polygon fill="none" stroke="black" points="436,-348.5 436,-417.5 552,-417.5 552,-348.5 436,-348.5"/>
<text text-anchor="middle" x="494" y="-402.3" font-family="Times,serif" font-size="14.00">void</text>
<polyline fill="none" stroke="black" points="436,-394.5 552,-394.5 "/>
<text text-anchor="middle" x="494" y="-379.3" font-family="Times,serif" font-size="14.00">template&#45;name&#45;17</text>
<polyline fill="none" stroke="black" points="436,-371.5 552,-371.5 "/>
<text text-anchor="middle" x="494" y="-356.3" font-family="Times,serif" font-size="14.00">value</text>
</g>
<!-- T6&#45;&gt;T14 -->
<g id="edge30" class="edge"><title>T6:O0&#45;&gt;T14:I0</title>
<path fill="none" stroke="black" d="M588,-464C588,-463.287 568.441,-430.346 558.557,-414.433"/>
<polygon fill="black" stroke="black" points="561.425,-412.424 553,-406 555.58,-416.276 561.425,-412.424"/>
<text text-anchor="middle" x="582" y="-438.8" font-family="Times,serif" font-size="9.00">22</text>
</g>
<!-- S14 -->
<g id="node37" class="node"><title>S14</title>
<ellipse fill="none" stroke="grey" cx="588" cy="-383" rx="18" ry="18"/>
<text text-anchor="middle" x="588" y="-380.8" font-family="Times,serif" font-size="9.00" fill="grey">22</text>
</g>
<!-- T6&#45;&gt;S14 -->
<g id="edge14" class="edge"><title>T6:T&#45;&gt;S14</title>
<path fill="none" stroke="grey" d="M618,-499C636.498,-499 614.368,-442.587 599.446,-408.783"/>
<polygon fill="grey" stroke="grey" points="602.572,-407.2 595.285,-399.509 596.186,-410.066 602.572,-407.2"/>
</g>
<!-- T8 -->
<g id="node8" class="node"><title>T8</title>
<polygon fill="none" stroke="black" points="530,-232.5 530,-301.5 624,-301.5 624,-232.5 530,-232.5"/>
<text text-anchor="middle" x="577" y="-286.3" font-family="Times,serif" font-size="14.00">path</text>
<polyline fill="none" stroke="black" points="530,-278.5 624,-278.5 "/>
<text text-anchor="middle" x="577" y="-263.3" font-family="Times,serif" font-size="14.00">change&#45;ext&#45;16</text>
<polyline fill="none" stroke="black" points="530,-255.5 624,-255.5 "/>
<text text-anchor="middle" x="577" y="-240.3" font-family="Times,serif" font-size="14.00">path</text>
</g>
<!-- T7&#45;&gt;T8 -->
<g id="edge33" class="edge"><title>T7:O0&#45;&gt;T8:I0</title>
<path fill="none" stroke="black" d="M623,-360C610.964,-360 628.052,-318.126 629.212,-299.151"/>
<polygon fill="black" stroke="black" points="632.361,-297.62 625,-290 626.002,-300.547 632.361,-297.62"/>
<text text-anchor="middle" x="631" y="-322.8" font-family="Times,serif" font-size="9.00">22</text>
</g>
<!-- S18 -->
<g id="node41" class="node"><title>S18</title>
<ellipse fill="none" stroke="grey" cx="669" cy="-267" rx="18" ry="18"/>
<text text-anchor="middle" x="669" y="-264.8" font-family="Times,serif" font-size="9.00" fill="grey">22</text>
</g>
<!-- T7&#45;&gt;S18 -->
<g id="edge18" class="edge"><title>T7:T&#45;&gt;S18</title>
<path fill="none" stroke="grey" d="M715,-383C754.873,-383 712.849,-322.664 686.65,-289.399"/>
<polygon fill="grey" stroke="grey" points="689.059,-286.808 680.075,-281.192 683.596,-291.185 689.059,-286.808"/>
</g>
<!-- T9 -->
<g id="node9" class="node"><title>T9</title>
<polygon fill="none" stroke="black" points="613.5,-116.5 613.5,-185.5 718.5,-185.5 718.5,-116.5 613.5,-116.5"/>
<text text-anchor="middle" x="666" y="-170.3" font-family="Times,serif" font-size="14.00">text</text>
<polyline fill="none" stroke="black" points="613.5,-162.5 718.5,-162.5 "/>
<text text-anchor="middle" x="666" y="-147.3" font-family="Times,serif" font-size="14.00">md&#45;filename&#45;14</text>
<polyline fill="none" stroke="black" points="613.5,-139.5 718.5,-139.5 "/>
<text text-anchor="middle" x="666" y="-124.3" font-family="Times,serif" font-size="14.00">text</text>
</g>
<!-- T8&#45;&gt;T9 -->
<g id="edge34" class="edge"><title>T8:O0&#45;&gt;T9:I0</title>
<path fill="none" stroke="black" stroke-dasharray="5,2" d="M625,-244C631.258,-244 653.372,-212.492 662.26,-195.511"/>
<polygon fill="black" stroke="black" points="665.598,-196.587 666,-186 659.083,-194.026 665.598,-196.587"/>
</g>
<!-- S19 -->
<g id="node42" class="node"><title>S19</title>
<ellipse fill="red" stroke="red" cx="577" cy="-151" rx="18" ry="18"/>
<text text-anchor="middle" x="577" y="-153.8" font-family="Times,serif" font-size="9.00" fill="white">+22</text>
<text text-anchor="middle" x="577" y="-143.8" font-family="Times,serif" font-size="9.00" fill="white">&#45;0</text>
</g>
<!-- T8&#45;&gt;S19 -->
<g id="edge19" class="edge"><title>T8:T&#45;&gt;S19</title>
<path fill="none" stroke="grey" d="M625,-267C640.562,-267 628.299,-246.956 624,-232 617.863,-210.646 604.695,-189.079 593.854,-173.728"/>
<polygon fill="grey" stroke="grey" points="596.536,-171.466 587.811,-165.456 590.884,-175.595 596.536,-171.466"/>
</g>
<!-- T10 -->
<g id="node10" class="node"><title>T10</title>
<polygon fill="none" stroke="black" points="644,-0.5 644,-69.5 730,-69.5 730,-0.5 644,-0.5"/>
<text text-anchor="middle" x="666" y="-54.3" font-family="Times,serif" font-size="14.00">path</text>
<polyline fill="none" stroke="black" points="688,-46.5 688,-69.5 "/>
<text text-anchor="middle" x="709" y="-54.3" font-family="Times,serif" font-size="14.00">text</text>
<polyline fill="none" stroke="black" points="644,-46.5 730,-46.5 "/>
<text text-anchor="middle" x="687" y="-31.3" font-family="Times,serif" font-size="14.00">SaveText&#45;20</text>
<polyline fill="none" stroke="black" points="644,-23.5 730,-23.5 "/>
<text text-anchor="middle" x="687" y="-8.3" font-family="Times,serif" font-size="14.00">path</text>
</g>
<!-- T9&#45;&gt;T10 -->
<g id="edge35" class="edge"><title>T9:O0&#45;&gt;T10:I0</title>
<path fill="none" stroke="black" stroke-dasharray="5,2" d="M666,-116C666,-99.3889 666,-92.9002 666,-80.085"/>
<polygon fill="black" stroke="black" points="669.5,-80 666,-70 662.5,-80 669.5,-80"/>
</g>
<!-- T10&#45;&gt;T5 -->
<g id="edge29" class="edge"><title>T10:O0&#45;&gt;T5:O0</title>
<path fill="none" stroke="red" d="M731,-12C792.744,-12 747,-88.2558 747,-150 747,-500 747,-500 747,-500 747,-502.291 720.084,-561.029 708.282,-583.43"/>
<polygon fill="red" stroke="red" points="705.268,-581.651 703,-592 711.227,-585.324 705.268,-581.651"/>
</g>
<!-- T12 -->
<g id="node12" class="node"><title>T12</title>
<polygon fill="none" stroke="black" points="215,-232.5 215,-301.5 275,-301.5 275,-232.5 215,-232.5"/>
<text text-anchor="middle" x="245" y="-286.3" font-family="Times,serif" font-size="14.00">md</text>
<polyline fill="none" stroke="black" points="215,-278.5 275,-278.5 "/>
<text text-anchor="middle" x="245" y="-263.3" font-family="Times,serif" font-size="14.00">Tool&#45;13</text>
<polyline fill="none" stroke="black" points="215,-255.5 275,-255.5 "/>
<text text-anchor="middle" x="245" y="-240.3" font-family="Times,serif" font-size="14.00">html</text>
</g>
<!-- T11&#45;&gt;T12 -->
<g id="edge36" class="edge"><title>T11:O0&#45;&gt;T12:I0</title>
<path fill="none" stroke="black" d="M288,-360C275.608,-360 285.007,-316.847 281.979,-298.305"/>
<polygon fill="black" stroke="black" points="284.683,-296.071 276,-290 279.002,-300.161 284.683,-296.071"/>
<text text-anchor="middle" x="288" y="-322.8" font-family="Times,serif" font-size="9.00">22</text>
</g>
<!-- S17 -->
<g id="node40" class="node"><title>S17</title>
<ellipse fill="none" stroke="grey" cx="344" cy="-267" rx="18" ry="18"/>
<text text-anchor="middle" x="344" y="-264.8" font-family="Times,serif" font-size="9.00" fill="grey">22</text>
</g>
<!-- T11&#45;&gt;S17 -->
<g id="edge17" class="edge"><title>T11:T&#45;&gt;S17</title>
<path fill="none" stroke="grey" d="M400,-383C415.562,-383 403.828,-362.794 399,-348 394.946,-335.578 375.626,-308.855 361.02,-289.712"/>
<polygon fill="grey" stroke="grey" points="363.786,-287.568 354.91,-281.783 358.241,-291.841 363.786,-287.568"/>
</g>
<!-- T13 -->
<g id="node13" class="node"><title>T13</title>
<polygon fill="none" stroke="black" points="281.5,-116.5 281.5,-185.5 382.5,-185.5 382.5,-116.5 281.5,-116.5"/>
<text text-anchor="middle" x="300" y="-170.3" font-family="Times,serif" font-size="14.00">text</text>
<polyline fill="none" stroke="black" points="318.5,-162.5 318.5,-185.5 "/>
<text text-anchor="middle" x="350.5" y="-170.3" font-family="Times,serif" font-size="14.00">template</text>
<polyline fill="none" stroke="black" points="281.5,-162.5 382.5,-162.5 "/>
<text text-anchor="middle" x="332" y="-147.3" font-family="Times,serif" font-size="14.00">combine&#45;19</text>
<polyline fill="none" stroke="black" points="281.5,-139.5 382.5,-139.5 "/>
<text text-anchor="middle" x="332" y="-124.3" font-family="Times,serif" font-size="14.00">text</text>
</g>
<!-- T12&#45;&gt;T13 -->
<g id="edge37" class="edge"><title>T12:O0&#45;&gt;T13:I0</title>
<path fill="none" stroke="black" d="M276,-244C300.519,-244 300.478,-220.747 300.108,-196.174"/>
<polygon fill="black" stroke="black" points="303.606,-195.962 300,-186 296.607,-196.037 303.606,-195.962"/>
<text text-anchor="middle" x="306" y="-206.8" font-family="Times,serif" font-size="9.00">22</text>
</g>
<!-- S20 -->
<g id="node43" class="node"><title>S20</title>
<ellipse fill="none" stroke="grey" cx="245" cy="-151" rx="18" ry="18"/>
<text text-anchor="middle" x="245" y="-148.8" font-family="Times,serif" font-size="9.00" fill="grey">22</text>
</g>
<!-- T12&#45;&gt;S20 -->
<g id="edge20" class="edge"><title>T12:T&#45;&gt;S20</title>
<path fill="none" stroke="grey" d="M276,-267C291.562,-267 278.448,-247.175 275,-232 273.061,-223.463 270.244,-222.131 267,-214 262.302,-202.223 257.541,-189.001 253.656,-177.802"/>
<polygon fill="grey" stroke="grey" points="256.913,-176.51 250.36,-168.185 250.291,-178.779 256.913,-176.51"/>
</g>
<!-- T13&#45;&gt;T10 -->
<g id="edge38" class="edge"><title>T13:O0&#45;&gt;T10:I1</title>
<path fill="none" stroke="black" d="M384,-128C390.41,-128 386.581,-119.424 392,-116 405.517,-107.461 650.625,-91.4991 700.273,-75.4395"/>
<polygon fill="black" stroke="black" points="702.365,-78.2599 709,-70 698.662,-72.3193 702.365,-78.2599"/>
<text text-anchor="middle" x="633" y="-90.8" font-family="Times,serif" font-size="9.00">22</text>
</g>
<!-- S21 -->
<g id="node44" class="node"><title>S21</title>
<ellipse fill="none" stroke="grey" cx="332" cy="-35" rx="18" ry="18"/>
<text text-anchor="middle" x="332" y="-32.8" font-family="Times,serif" font-size="9.00" fill="grey">22</text>
</g>
<!-- T13&#45;&gt;S21 -->
<g id="edge21" class="edge"><title>T13:T&#45;&gt;S21</title>
<path fill="none" stroke="grey" d="M384,-151C399.562,-151 387.57,-130.876 383,-116 376.288,-94.1515 361.868,-72.4833 350.068,-57.2196"/>
<polygon fill="grey" stroke="grey" points="352.484,-54.6374 343.501,-49.0197 347.02,-59.013 352.484,-54.6374"/>
</g>
<!-- T15 -->
<g id="node15" class="node"><title>T15</title>
<polygon fill="none" stroke="black" points="380.5,-232.5 380.5,-301.5 457.5,-301.5 457.5,-232.5 380.5,-232.5"/>
<text text-anchor="middle" x="419" y="-286.3" font-family="Times,serif" font-size="14.00">path</text>
<polyline fill="none" stroke="black" points="380.5,-278.5 457.5,-278.5 "/>
<text text-anchor="middle" x="419" y="-263.3" font-family="Times,serif" font-size="14.00">load&#45;tpl&#45;18</text>
<polyline fill="none" stroke="black" points="380.5,-255.5 457.5,-255.5 "/>
<text text-anchor="middle" x="419" y="-240.3" font-family="Times,serif" font-size="14.00">text</text>
</g>
<!-- T14&#45;&gt;T15 -->
<g id="edge39" class="edge"><title>T14:O0&#45;&gt;T15:I0</title>
<path fill="none" stroke="black" d="M435,-360C411.602,-360 416.9,-336.067 418.591,-312.17"/>
<polygon fill="black" stroke="black" points="422.095,-312.133 419,-302 415.101,-311.851 422.095,-312.133"/>
<text text-anchor="middle" x="423" y="-322.8" font-family="Times,serif" font-size="9.00">22</text>
</g>
<!-- S15 -->
<g id="node38" class="node"><title>S15</title>
<ellipse fill="none" stroke="grey" cx="494" cy="-267" rx="18" ry="18"/>
<text text-anchor="middle" x="494" y="-264.8" font-family="Times,serif" font-size="9.00" fill="grey">22</text>
</g>
<!-- T14&#45;&gt;S15 -->
<g id="edge15" class="edge"><title>T14:T&#45;&gt;S15</title>
<path fill="none" stroke="grey" d="M553,-383C568.562,-383 557.012,-362.733 552,-348 549.756,-341.405 527.008,-310.97 510.68,-289.604"/>
<polygon fill="grey" stroke="grey" points="513.443,-287.456 504.58,-281.652 507.889,-291.717 513.443,-287.456"/>
</g>
<!-- T15&#45;&gt;T13 -->
<g id="edge40" class="edge"><title>T15:O0&#45;&gt;T13:I1</title>
<path fill="none" stroke="black" d="M379,-244C376.261,-244 361.303,-212.099 354.442,-195.539"/>
<polygon fill="black" stroke="black" points="357.686,-194.219 351,-186 351.102,-196.594 357.686,-194.219"/>
<text text-anchor="middle" x="368" y="-206.8" font-family="Times,serif" font-size="9.00">22</text>
</g>
<!-- S16 -->
<g id="node39" class="node"><title>S16</title>
<ellipse fill="none" stroke="grey" cx="419" cy="-151" rx="18" ry="18"/>
<text text-anchor="middle" x="419" y="-148.8" font-family="Times,serif" font-size="9.00" fill="grey">22</text>
</g>
<!-- T15&#45;&gt;S16 -->
<g id="edge16" class="edge"><title>T15:T&#45;&gt;S16</title>
<path fill="none" stroke="grey" d="M459,-267C478.129,-267 450.218,-209.522 432.219,-175.837"/>
<polygon fill="grey" stroke="grey" points="435.291,-174.161 427.452,-167.034 429.136,-177.494 435.291,-174.161"/>
</g>
<!-- T17 -->
<g id="node17" class="node"><title>T17</title>
<polygon fill="none" stroke="black" points="206.5,-696.5 206.5,-765.5 289.5,-765.5 289.5,-696.5 206.5,-696.5"/>
<text text-anchor="middle" x="248" y="-750.3" font-family="Times,serif" font-size="14.00">path</text>
<polyline fill="none" stroke="black" points="206.5,-742.5 289.5,-742.5 "/>
<text text-anchor="middle" x="248" y="-727.3" font-family="Times,serif" font-size="14.00">tool&#45;name&#45;5</text>
<polyline fill="none" stroke="black" points="206.5,-719.5 289.5,-719.5 "/>
<text text-anchor="middle" x="248" y="-704.3" font-family="Times,serif" font-size="14.00">name</text>
</g>
<!-- T16&#45;&gt;T17 -->
<g id="edge42" class="edge"><title>T16:O0&#45;&gt;T17:I0</title>
<path fill="none" stroke="black" d="M491,-824C400.319,-824 386.154,-759.099 301.152,-754.282"/>
<polygon fill="black" stroke="black" points="301.093,-750.779 291,-754 300.899,-757.776 301.093,-750.779"/>
<text text-anchor="middle" x="403" y="-786.8" font-family="Times,serif" font-size="9.00">19</text>
</g>
<!-- T22 -->
<g id="node22" class="node"><title>T22</title>
<polygon fill="none" stroke="black" points="388.5,-696.5 388.5,-765.5 495.5,-765.5 495.5,-696.5 388.5,-696.5"/>
<text text-anchor="middle" x="442" y="-750.3" font-family="Times,serif" font-size="14.00">path</text>
<polyline fill="none" stroke="black" points="388.5,-742.5 495.5,-742.5 "/>
<text text-anchor="middle" x="442" y="-727.3" font-family="Times,serif" font-size="14.00">load&#45;tool&#45;code&#45;3</text>
<polyline fill="none" stroke="black" points="388.5,-719.5 495.5,-719.5 "/>
<text text-anchor="middle" x="442" y="-704.3" font-family="Times,serif" font-size="14.00">text</text>
</g>
<!-- T16&#45;&gt;T22 -->
<g id="edge41" class="edge"><title>T16:O0&#45;&gt;T22:I0</title>
<path fill="none" stroke="black" d="M491,-824C460.814,-824 445.423,-804.592 442.513,-776.343"/>
<polygon fill="black" stroke="black" points="445.991,-775.814 442,-766 439,-776.161 445.991,-775.814"/>
<text text-anchor="middle" x="452" y="-786.8" font-family="Times,serif" font-size="9.00">19</text>
</g>
<!-- S3 -->
<g id="node26" class="node"><title>S3</title>
<ellipse fill="none" stroke="grey" cx="532" cy="-731" rx="18" ry="18"/>
<text text-anchor="middle" x="532" y="-728.8" font-family="Times,serif" font-size="9.00" fill="grey">31</text>
</g>
<!-- T16&#45;&gt;S3 -->
<g id="edge3" class="edge"><title>T16:T&#45;&gt;S3</title>
<path fill="none" stroke="grey" d="M573,-847C612.109,-847 573.544,-787.26 548.955,-753.895"/>
<polygon fill="grey" stroke="grey" points="551.565,-751.541 542.764,-745.644 545.966,-755.743 551.565,-751.541"/>
</g>
<!-- T18 -->
<g id="node18" class="node"><title>T18</title>
<polygon fill="none" stroke="black" points="0,-580.5 0,-649.5 98,-649.5 98,-580.5 0,-580.5"/>
<text text-anchor="middle" x="49" y="-634.3" font-family="Times,serif" font-size="14.00">text</text>
<polyline fill="none" stroke="black" points="0,-626.5 98,-626.5 "/>
<text text-anchor="middle" x="49" y="-611.3" font-family="Times,serif" font-size="14.00">md&#45;filename&#45;8</text>
<polyline fill="none" stroke="black" points="0,-603.5 98,-603.5 "/>
<text text-anchor="middle" x="49" y="-588.3" font-family="Times,serif" font-size="14.00">text</text>
</g>
<!-- T17&#45;&gt;T18 -->
<g id="edge44" class="edge"><title>T17:O0&#45;&gt;T18:I0</title>
<path fill="none" stroke="black" d="M205,-708C154.388,-708 143.346,-685.222 107,-650 105.849,-648.885 105.174,-647.577 104.709,-646.243"/>
<polygon fill="black" stroke="black" points="107.571,-644.228 99,-638 101.817,-648.214 107.571,-644.228"/>
<text text-anchor="middle" x="139" y="-670.8" font-family="Times,serif" font-size="9.00">19</text>
</g>
<!-- T20 -->
<g id="node20" class="node"><title>T20</title>
<polygon fill="none" stroke="black" points="116.5,-580.5 116.5,-649.5 211.5,-649.5 211.5,-580.5 116.5,-580.5"/>
<text text-anchor="middle" x="164" y="-634.3" font-family="Times,serif" font-size="14.00">text</text>
<polyline fill="none" stroke="black" points="116.5,-626.5 211.5,-626.5 "/>
<text text-anchor="middle" x="164" y="-611.3" font-family="Times,serif" font-size="14.00">PrefixSuffix&#45;6</text>
<polyline fill="none" stroke="black" points="116.5,-603.5 211.5,-603.5 "/>
<text text-anchor="middle" x="164" y="-588.3" font-family="Times,serif" font-size="14.00">text</text>
</g>
<!-- T17&#45;&gt;T20 -->
<g id="edge43" class="edge"><title>T17:O0&#45;&gt;T20:I0</title>
<path fill="none" stroke="black" d="M205,-708C176.885,-708 166.328,-687.034 164.355,-660.146"/>
<polygon fill="black" stroke="black" points="167.848,-659.871 164,-650 160.852,-660.116 167.848,-659.871"/>
<text text-anchor="middle" x="172" y="-670.8" font-family="Times,serif" font-size="9.00">19</text>
</g>
<!-- S5 -->
<g id="node28" class="node"><title>S5</title>
<ellipse fill="none" stroke="grey" cx="248" cy="-615" rx="18" ry="18"/>
<text text-anchor="middle" x="248" y="-612.8" font-family="Times,serif" font-size="9.00" fill="grey">19</text>
</g>
<!-- T17&#45;&gt;S5 -->
<g id="edge5" class="edge"><title>T17:T&#45;&gt;S5</title>
<path fill="none" stroke="grey" d="M291,-731C330.329,-731 290.628,-671.26 265.388,-637.895"/>
<polygon fill="grey" stroke="grey" points="267.908,-635.432 259.034,-629.644 262.362,-639.702 267.908,-635.432"/>
</g>
<!-- T19 -->
<g id="node19" class="node"><title>T19</title>
<polygon fill="none" stroke="black" points="139.5,-348.5 139.5,-417.5 216.5,-417.5 216.5,-348.5 139.5,-348.5"/>
<text text-anchor="middle" x="159.5" y="-402.3" font-family="Times,serif" font-size="14.00">path</text>
<polyline fill="none" stroke="black" points="179.5,-394.5 179.5,-417.5 "/>
<text text-anchor="middle" x="198" y="-402.3" font-family="Times,serif" font-size="14.00">text</text>
<polyline fill="none" stroke="black" points="139.5,-394.5 216.5,-394.5 "/>
<text text-anchor="middle" x="178" y="-379.3" font-family="Times,serif" font-size="14.00">save&#45;md&#45;9</text>
<polyline fill="none" stroke="black" points="139.5,-371.5 216.5,-371.5 "/>
<text text-anchor="middle" x="178" y="-356.3" font-family="Times,serif" font-size="14.00">path</text>
</g>
<!-- T18&#45;&gt;T19 -->
<g id="edge45" class="edge"><title>T18:O0&#45;&gt;T19:I0</title>
<path fill="none" stroke="black" d="M99,-592C108.156,-592 122.821,-452.125 133.44,-414.971"/>
<polygon fill="black" stroke="black" points="136.589,-416.5 138,-406 130.349,-413.329 136.589,-416.5"/>
<text text-anchor="middle" x="129" y="-496.8" font-family="Times,serif" font-size="9.00">19</text>
</g>
<!-- S7 -->
<g id="node30" class="node"><title>S7</title>
<ellipse fill="none" stroke="grey" cx="49" cy="-499" rx="18" ry="18"/>
<text text-anchor="middle" x="49" y="-496.8" font-family="Times,serif" font-size="9.00" fill="grey">19</text>
</g>
<!-- T18&#45;&gt;S7 -->
<g id="edge7" class="edge"><title>T18:T&#45;&gt;S7</title>
<path fill="none" stroke="grey" d="M99,-615C114.562,-615 102.436,-594.916 98,-580 91.5964,-558.467 77.8688,-536.914 66.5683,-521.614"/>
<polygon fill="grey" stroke="grey" points="69.1233,-519.193 60.269,-513.375 63.5625,-523.445 69.1233,-519.193"/>
</g>
<!-- T19&#45;&gt;T2 -->
<g id="edge25" class="edge"><title>T19:O0&#45;&gt;T2:O0</title>
<path fill="none" stroke="red" d="M218,-360C231.011,-360 217.605,-408.06 226,-418 269.897,-469.977 313.61,-429.084 372,-464 383.886,-471.107 722.654,-799.691 729,-812 753.814,-860.126 753.489,-909.591 750.657,-930.133"/>
<polygon fill="red" stroke="red" points="747.221,-929.434 748,-940 753.98,-931.254 747.221,-929.434"/>
</g>
<!-- S10 -->
<g id="node33" class="node"><title>S10</title>
<ellipse fill="none" stroke="grey" cx="178" cy="-267" rx="18" ry="18"/>
<text text-anchor="middle" x="178" y="-264.8" font-family="Times,serif" font-size="9.00" fill="grey">19</text>
</g>
<!-- T19&#45;&gt;S10 -->
<g id="edge10" class="edge"><title>T19:T&#45;&gt;S10</title>
<path fill="none" stroke="grey" d="M218,-383C237.129,-383 209.218,-325.522 191.219,-291.837"/>
<polygon fill="grey" stroke="grey" points="194.291,-290.161 186.452,-283.034 188.136,-293.494 194.291,-290.161"/>
</g>
<!-- T21 -->
<g id="node21" class="node"><title>T21</title>
<polygon fill="none" stroke="black" points="200,-464.5 200,-533.5 306,-533.5 306,-464.5 200,-464.5"/>
<text text-anchor="middle" x="219" y="-518.3" font-family="Times,serif" font-size="14.00">title</text>
<polyline fill="none" stroke="black" points="238,-510.5 238,-533.5 "/>
<text text-anchor="middle" x="272" y="-518.3" font-family="Times,serif" font-size="14.00">comment</text>
<polyline fill="none" stroke="black" points="200,-510.5 306,-510.5 "/>
<text text-anchor="middle" x="253" y="-495.3" font-family="Times,serif" font-size="14.00">concat&#45;7</text>
<polyline fill="none" stroke="black" points="200,-487.5 306,-487.5 "/>
<text text-anchor="middle" x="253" y="-472.3" font-family="Times,serif" font-size="14.00">text</text>
</g>
<!-- T20&#45;&gt;T21 -->
<g id="edge46" class="edge"><title>T20:O0&#45;&gt;T21:I0</title>
<path fill="none" stroke="black" d="M213,-592C223.528,-592 220.909,-562.265 219.557,-544.164"/>
<polygon fill="black" stroke="black" points="223.042,-543.794 219,-534 216.052,-544.176 223.042,-543.794"/>
<text text-anchor="middle" x="226" y="-554.8" font-family="Times,serif" font-size="9.00">19</text>
</g>
<!-- S6 -->
<g id="node29" class="node"><title>S6</title>
<ellipse fill="none" stroke="grey" cx="164" cy="-499" rx="18" ry="18"/>
<text text-anchor="middle" x="164" y="-496.8" font-family="Times,serif" font-size="9.00" fill="grey">19</text>
</g>
<!-- T20&#45;&gt;S6 -->
<g id="edge6" class="edge"><title>T20:T&#45;&gt;S6</title>
<path fill="none" stroke="grey" d="M213,-615C220.781,-615 215.709,-586.84 212,-580 205.3,-567.645 194.54,-573.162 186,-562 178.109,-551.687 172.888,-538.305 169.521,-526.615"/>
<polygon fill="grey" stroke="grey" points="172.902,-525.708 167.02,-516.896 166.123,-527.453 172.902,-525.708"/>
</g>
<!-- T21&#45;&gt;T19 -->
<g id="edge47" class="edge"><title>T21:O0&#45;&gt;T19:I1</title>
<path fill="none" stroke="black" d="M199,-476C188.526,-476 194.412,-446.221 196.988,-428.139"/>
<polygon fill="black" stroke="black" points="200.489,-428.298 198,-418 193.524,-427.603 200.489,-428.298"/>
<text text-anchor="middle" x="201" y="-438.8" font-family="Times,serif" font-size="9.00">19</text>
</g>
<!-- S9 -->
<g id="node32" class="node"><title>S9</title>
<ellipse fill="none" stroke="grey" cx="253" cy="-383" rx="18" ry="18"/>
<text text-anchor="middle" x="253" y="-380.8" font-family="Times,serif" font-size="9.00" fill="grey">19</text>
</g>
<!-- T21&#45;&gt;S9 -->
<g id="edge9" class="edge"><title>T21:T&#45;&gt;S9</title>
<path fill="none" stroke="grey" d="M307,-499C322.562,-499 310.7,-478.835 306,-464 302.116,-451.742 283.647,-425.181 269.593,-406.022"/>
<polygon fill="grey" stroke="grey" points="272.28,-403.769 263.515,-397.818 266.656,-407.937 272.28,-403.769"/>
</g>
<!-- T23 -->
<g id="node23" class="node"><title>T23</title>
<polygon fill="none" stroke="black" points="284.5,-580.5 284.5,-649.5 405.5,-649.5 405.5,-580.5 284.5,-580.5"/>
<text text-anchor="middle" x="345" y="-634.3" font-family="Times,serif" font-size="14.00">text</text>
<polyline fill="none" stroke="black" points="284.5,-626.5 405.5,-626.5 "/>
<text text-anchor="middle" x="345" y="-611.3" font-family="Times,serif" font-size="14.00">extract&#45;comment&#45;4</text>
<polyline fill="none" stroke="black" points="284.5,-603.5 405.5,-603.5 "/>
<text text-anchor="middle" x="345" y="-588.3" font-family="Times,serif" font-size="14.00">comment</text>
</g>
<!-- T22&#45;&gt;T23 -->
<g id="edge48" class="edge"><title>T22:O0&#45;&gt;T23:I0</title>
<path fill="none" stroke="black" d="M387,-708C360.963,-708 410.731,-662.673 414.306,-644.968"/>
<polygon fill="black" stroke="black" points="416.652,-642.369 407,-638 411.821,-647.435 416.652,-642.369"/>
<text text-anchor="middle" x="406" y="-670.8" font-family="Times,serif" font-size="9.00">19</text>
</g>
<!-- S4 -->
<g id="node27" class="node"><title>S4</title>
<ellipse fill="none" stroke="grey" cx="442" cy="-615" rx="18" ry="18"/>
<text text-anchor="middle" x="442" y="-612.8" font-family="Times,serif" font-size="9.00" fill="grey">19</text>
</g>
<!-- T22&#45;&gt;S4 -->
<g id="edge4" class="edge"><title>T22:T&#45;&gt;S4</title>
<path fill="none" stroke="grey" d="M497,-731C512.562,-731 500.764,-710.815 496,-696 488.771,-673.522 473.14,-651.552 460.547,-636.341"/>
<polygon fill="grey" stroke="grey" points="463.1,-633.941 453.935,-628.625 457.784,-638.496 463.1,-633.941"/>
</g>
<!-- T23&#45;&gt;T21 -->
<g id="edge49" class="edge"><title>T23:O0&#45;&gt;T21:I1</title>
<path fill="none" stroke="black" d="M283,-592C277.901,-592 274.083,-560.916 272.635,-543.993"/>
<polygon fill="black" stroke="black" points="276.127,-543.758 272,-534 269.141,-544.202 276.127,-543.758"/>
<text text-anchor="middle" x="280" y="-554.8" font-family="Times,serif" font-size="9.00">19</text>
</g>
<!-- S8 -->
<g id="node31" class="node"><title>S8</title>
<ellipse fill="none" stroke="grey" cx="345" cy="-499" rx="18" ry="18"/>
<text text-anchor="middle" x="345" y="-496.8" font-family="Times,serif" font-size="9.00" fill="grey">19</text>
</g>
<!-- T23&#45;&gt;S8 -->
<g id="edge8" class="edge"><title>T23:T&#45;&gt;S8</title>
<path fill="none" stroke="grey" d="M407,-615C422.562,-615 411.19,-594.671 406,-580 397.617,-556.303 379.382,-533.967 365.02,-518.951"/>
<polygon fill="grey" stroke="grey" points="367.46,-516.44 357.936,-511.797 362.486,-521.365 367.46,-516.44"/>
</g>
</g>
</svg>
