<?xml version="1.0" encoding="UTF-8" standalone="no"?>
<!DOCTYPE svg PUBLIC "-//W3C//DTD SVG 1.1//EN"
 "http://www.w3.org/Graphics/SVG/1.1/DTD/svg11.dtd">
<!-- Generated by graphviz version 2.28.0 (20110507.0327)
 -->
<!-- Title: Matis Pages: 1 -->
<svg width="1121pt" height="1196pt"
 viewBox="0.00 0.00 1121.19 1196.00" xmlns="http://www.w3.org/2000/svg" xmlns:xlink="http://www.w3.org/1999/xlink">
<g id="graph1" class="graph" transform="scale(1 1) rotate(0) translate(4 1192)">
<title>Matis</title>
<polygon fill="white" stroke="white" points="-4,5 -4,-1192 1118.19,-1192 1118.19,5 -4,5"/>
<!-- T1 -->
<g id="node1" class="node"><title>T1</title>
<polygon fill="none" stroke="black" points="957.5,-1118.5 957.5,-1187.5 1028.5,-1187.5 1028.5,-1118.5 957.5,-1118.5"/>
<text text-anchor="middle" x="993" y="-1172.3" font-family="Times New Roman,serif" font-size="14.00">path</text>
<polyline fill="none" stroke="black" points="957.5,-1164.5 1028.5,-1164.5 "/>
<text text-anchor="middle" x="993" y="-1149.3" font-family="Times New Roman,serif" font-size="14.00">ListTools</text>
<polyline fill="none" stroke="black" points="957.5,-1141.5 1028.5,-1141.5 "/>
<text text-anchor="middle" x="993" y="-1126.3" font-family="Times New Roman,serif" font-size="14.00">files</text>
</g>
<!-- T2 -->
<g id="node2" class="node"><title>T2</title>
<polygon fill="none" stroke="black" points="879,-1002.5 879,-1071.5 957,-1071.5 957,-1002.5 879,-1002.5"/>
<text text-anchor="middle" x="918" y="-1056.3" font-family="Times New Roman,serif" font-size="14.00">text</text>
<polyline fill="none" stroke="black" points="879,-1048.5 957,-1048.5 "/>
<text text-anchor="middle" x="918" y="-1033.3" font-family="Times New Roman,serif" font-size="14.00">ForEachJS</text>
<polyline fill="none" stroke="black" points="879,-1025.5 957,-1025.5 "/>
<text text-anchor="middle" x="918" y="-1010.3" font-family="Times New Roman,serif" font-size="14.00">path</text>
</g>
<!-- T1&#45;&gt;T2 -->
<g id="edge56" class="edge"><title>T1:O0&#45;&gt;T2:I0</title>
<path fill="none" stroke="black" d="M956,-1130C943.964,-1130 961.052,-1088.13 962.212,-1069.15"/>
<polygon fill="black" stroke="black" points="965.361,-1067.62 958,-1060 959.002,-1070.55 965.361,-1067.62"/>
<text text-anchor="middle" x="961.5" y="-1092.8" font-family="Times New Roman,serif" font-size="9.00">1</text>
</g>
<!-- S1 -->
<g id="node28" class="node"><title>S1</title>
<ellipse fill="none" stroke="grey" cx="993" cy="-1037" rx="18" ry="18"/>
<text text-anchor="middle" x="993" y="-1034.8" font-family="Times New Roman,serif" font-size="9.00" fill="grey">1</text>
</g>
<!-- T1&#45;&gt;S1 -->
<g id="edge2" class="edge"><title>T1:T&#45;&gt;S1</title>
<path fill="none" stroke="grey" d="M1030,-1153C1068.51,-1153 1032.75,-1093.85 1009.45,-1060.39"/>
<polygon fill="grey" stroke="grey" points="1012.2,-1058.23 1003.56,-1052.1 1006.49,-1062.28 1012.2,-1058.23"/>
</g>
<!-- T3 -->
<g id="node3" class="node"><title>T3</title>
<polygon fill="none" stroke="black" points="954.5,-886.5 954.5,-955.5 1019.5,-955.5 1019.5,-886.5 954.5,-886.5"/>
<text text-anchor="middle" x="987" y="-940.3" font-family="Times New Roman,serif" font-size="14.00">void</text>
<polyline fill="none" stroke="black" points="954.5,-932.5 1019.5,-932.5 "/>
<text text-anchor="middle" x="987" y="-917.3" font-family="Times New Roman,serif" font-size="14.00">DocPath</text>
<polyline fill="none" stroke="black" points="954.5,-909.5 1019.5,-909.5 "/>
<text text-anchor="middle" x="987" y="-894.3" font-family="Times New Roman,serif" font-size="14.00">value</text>
</g>
<!-- T2&#45;&gt;T3 -->
<g id="edge58" class="edge"><title>T2:O0&#45;&gt;T3:I0</title>
<path fill="none" stroke="black" d="M958,-1014C960.758,-1014 976.292,-982.113 983.422,-965.549"/>
<polygon fill="black" stroke="black" points="986.769,-966.592 987,-956 980.214,-964.136 986.769,-966.592"/>
<text text-anchor="middle" x="982.5" y="-976.8" font-family="Times New Roman,serif" font-size="9.00">1</text>
</g>
<!-- T14 -->
<g id="node14" class="node"><title>T14</title>
<polygon fill="none" stroke="black" points="693,-886.5 693,-955.5 765,-955.5 765,-886.5 693,-886.5"/>
<text text-anchor="middle" x="729" y="-940.3" font-family="Times New Roman,serif" font-size="14.00">text</text>
<polyline fill="none" stroke="black" points="693,-932.5 765,-932.5 "/>
<text text-anchor="middle" x="729" y="-917.3" font-family="Times New Roman,serif" font-size="14.00">FilterTool</text>
<polyline fill="none" stroke="black" points="693,-909.5 765,-909.5 "/>
<text text-anchor="middle" x="712" y="-894.3" font-family="Times New Roman,serif" font-size="14.00">yes</text>
<polyline fill="none" stroke="black" points="731,-886.5 731,-909.5 "/>
<text text-anchor="middle" x="748" y="-894.3" font-family="Times New Roman,serif" font-size="14.00">no</text>
</g>
<!-- T2&#45;&gt;T14 -->
<g id="edge60" class="edge"><title>T2:I0&#45;&gt;T14:I0</title>
<path fill="none" stroke="blue" stroke-width="2" d="M878,-1060C845.387,-1060 809.044,-963.907 775.76,-946.641"/>
<polygon fill="blue" stroke="blue" points="776.567,-943.233 766,-944 774.739,-949.99 776.567,-943.233"/>
</g>
<!-- S2 -->
<g id="node30" class="node"><title>S2</title>
<ellipse fill="none" stroke="grey" cx="918" cy="-921" rx="18" ry="18"/>
<text text-anchor="middle" x="918" y="-918.8" font-family="Times New Roman,serif" font-size="9.00" fill="grey">1</text>
</g>
<!-- T2&#45;&gt;S2 -->
<g id="edge4" class="edge"><title>T2:T&#45;&gt;S2</title>
<path fill="none" stroke="grey" d="M958,-1037C973.562,-1037 961.118,-1017.01 957,-1002 954.578,-993.175 951.163,-992.15 947,-984 940.853,-971.969 934.446,-958.395 929.223,-947.022"/>
<polygon fill="grey" stroke="grey" points="932.302,-945.339 924.973,-937.688 925.931,-948.239 932.302,-945.339"/>
</g>
<!-- T4 -->
<g id="node4" class="node"><title>T4</title>
<polygon fill="none" stroke="black" points="1023.5,-770.5 1023.5,-839.5 1094.5,-839.5 1094.5,-770.5 1023.5,-770.5"/>
<text text-anchor="middle" x="1059" y="-824.3" font-family="Times New Roman,serif" font-size="14.00">path</text>
<polyline fill="none" stroke="black" points="1023.5,-816.5 1094.5,-816.5 "/>
<text text-anchor="middle" x="1059" y="-801.3" font-family="Times New Roman,serif" font-size="14.00">ListPages</text>
<polyline fill="none" stroke="black" points="1023.5,-793.5 1094.5,-793.5 "/>
<text text-anchor="middle" x="1059" y="-778.3" font-family="Times New Roman,serif" font-size="14.00">files</text>
</g>
<!-- T3&#45;&gt;T4 -->
<g id="edge64" class="edge"><title>T3:O0&#45;&gt;T4:I0</title>
<path fill="none" stroke="black" d="M1021,-898C1048.33,-898 1057.07,-876.627 1058.7,-850.299"/>
<polygon fill="black" stroke="black" points="1062.21,-850.098 1059,-840 1055.21,-849.894 1062.21,-850.098"/>
<text text-anchor="middle" x="1060.5" y="-860.8" font-family="Times New Roman,serif" font-size="9.00">1</text>
</g>
<!-- S17 -->
<g id="node60" class="node"><title>S17</title>
<ellipse fill="none" stroke="grey" cx="987" cy="-805" rx="18" ry="18"/>
<text text-anchor="middle" x="987" y="-802.8" font-family="Times New Roman,serif" font-size="9.00" fill="grey">1</text>
</g>
<!-- T3&#45;&gt;S17 -->
<g id="edge34" class="edge"><title>T3:T&#45;&gt;S17</title>
<path fill="none" stroke="grey" d="M1021,-921C1039.66,-921 1015.51,-864.587 999.353,-830.783"/>
<polygon fill="grey" stroke="grey" points="1002.37,-828.978 994.853,-821.509 996.07,-832.034 1002.37,-828.978"/>
</g>
<!-- T5 -->
<g id="node5" class="node"><title>T5</title>
<polygon fill="none" stroke="black" points="937,-654.5 937,-723.5 1023,-723.5 1023,-654.5 937,-654.5"/>
<text text-anchor="middle" x="980" y="-708.3" font-family="Times New Roman,serif" font-size="14.00">any</text>
<polyline fill="none" stroke="black" points="937,-700.5 1023,-700.5 "/>
<text text-anchor="middle" x="980" y="-685.3" font-family="Times New Roman,serif" font-size="14.00">ForEachMD</text>
<polyline fill="none" stroke="black" points="937,-677.5 1023,-677.5 "/>
<text text-anchor="middle" x="980" y="-662.3" font-family="Times New Roman,serif" font-size="14.00">path</text>
</g>
<!-- T4&#45;&gt;T5 -->
<g id="edge66" class="edge"><title>T4:O0&#45;&gt;T5:I0</title>
<path fill="none" stroke="black" d="M1022,-782C1015.59,-782 1017.68,-775.246 1014,-770 1001.67,-752.446 985.942,-749.865 981.328,-734.216"/>
<polygon fill="black" stroke="black" points="984.76,-733.465 980,-724 977.818,-734.368 984.76,-733.465"/>
<text text-anchor="middle" x="997.5" y="-744.8" font-family="Times New Roman,serif" font-size="9.00">1</text>
</g>
<!-- S18 -->
<g id="node62" class="node"><title>S18</title>
<ellipse fill="none" stroke="grey" cx="1059" cy="-689" rx="18" ry="18"/>
<text text-anchor="middle" x="1059" y="-686.8" font-family="Times New Roman,serif" font-size="9.00" fill="grey">1</text>
</g>
<!-- T4&#45;&gt;S18 -->
<g id="edge36" class="edge"><title>T4:T&#45;&gt;S18</title>
<path fill="none" stroke="grey" d="M1096,-805C1134.51,-805 1098.75,-745.853 1075.45,-712.395"/>
<polygon fill="grey" stroke="grey" points="1078.2,-710.229 1069.56,-704.101 1072.49,-714.282 1078.2,-710.229"/>
</g>
<!-- T6 -->
<g id="node6" class="node"><title>T6</title>
<polygon fill="none" stroke="black" points="890,-538.5 890,-607.5 944,-607.5 944,-538.5 890,-538.5"/>
<text text-anchor="middle" x="917" y="-592.3" font-family="Times New Roman,serif" font-size="14.00">any</text>
<polyline fill="none" stroke="black" points="890,-584.5 944,-584.5 "/>
<text text-anchor="middle" x="917" y="-569.3" font-family="Times New Roman,serif" font-size="14.00">Start</text>
<polyline fill="none" stroke="black" points="890,-561.5 944,-561.5 "/>
<text text-anchor="middle" x="917" y="-546.3" font-family="Times New Roman,serif" font-size="14.00">any</text>
</g>
<!-- T5&#45;&gt;T6 -->
<g id="edge68" class="edge"><title>T5:I0&#45;&gt;T6:I0</title>
<path fill="none" stroke="blue" stroke-width="2" d="M936,-712C892.317,-712 913.435,-662.723 916.621,-618.037"/>
<polygon fill="blue" stroke="blue" points="920.12,-618.125 917,-608 913.125,-617.861 920.12,-618.125"/>
</g>
<!-- S19 -->
<g id="node64" class="node"><title>S19</title>
<ellipse fill="none" stroke="grey" cx="980" cy="-573" rx="18" ry="18"/>
<text text-anchor="middle" x="980" y="-570.8" font-family="Times New Roman,serif" font-size="9.00" fill="grey">1</text>
</g>
<!-- T5&#45;&gt;S19 -->
<g id="edge38" class="edge"><title>T5:T&#45;&gt;S19</title>
<path fill="none" stroke="grey" d="M1024,-689C1039.56,-689 1027.01,-669.035 1023,-654 1017.51,-633.436 1005.85,-612.316 996.062,-596.943"/>
<polygon fill="grey" stroke="grey" points="998.704,-594.592 990.277,-588.171 992.86,-598.446 998.704,-594.592"/>
</g>
<!-- T7 -->
<g id="node7" class="node"><title>T7</title>
<polygon fill="none" stroke="black" points="609,-422.5 609,-491.5 685,-491.5 685,-422.5 609,-422.5"/>
<text text-anchor="middle" x="647" y="-476.3" font-family="Times New Roman,serif" font-size="14.00">path</text>
<polyline fill="none" stroke="black" points="609,-468.5 685,-468.5 "/>
<text text-anchor="middle" x="647" y="-453.3" font-family="Times New Roman,serif" font-size="14.00">BaseName</text>
<polyline fill="none" stroke="black" points="609,-445.5 685,-445.5 "/>
<text text-anchor="middle" x="647" y="-430.3" font-family="Times New Roman,serif" font-size="14.00">basename</text>
</g>
<!-- T6&#45;&gt;T7 -->
<g id="edge74" class="edge"><title>T6:O0&#45;&gt;T7:I0</title>
<path fill="none" stroke="black" d="M889,-550C859.842,-550 863.553,-522.046 837,-510 808.644,-497.136 735.159,-482.837 696.389,-480.371"/>
<polygon fill="black" stroke="black" points="696.119,-476.86 686,-480 695.869,-483.855 696.119,-476.86"/>
<text text-anchor="middle" x="856" y="-512.8" font-family="Times New Roman,serif" font-size="9.00">22</text>
</g>
<!-- T11 -->
<g id="node11" class="node"><title>T11</title>
<polygon fill="none" stroke="black" points="785,-422.5 785,-491.5 881,-491.5 881,-422.5 785,-422.5"/>
<text text-anchor="middle" x="833" y="-476.3" font-family="Times New Roman,serif" font-size="14.00">path</text>
<polyline fill="none" stroke="black" points="785,-468.5 881,-468.5 "/>
<text text-anchor="middle" x="833" y="-453.3" font-family="Times New Roman,serif" font-size="14.00">LoadMdCode</text>
<polyline fill="none" stroke="black" points="785,-445.5 881,-445.5 "/>
<text text-anchor="middle" x="833" y="-430.3" font-family="Times New Roman,serif" font-size="14.00">text</text>
</g>
<!-- T6&#45;&gt;T11 -->
<g id="edge72" class="edge"><title>T6:O0&#45;&gt;T11:I0</title>
<path fill="none" stroke="black" d="M917,-538C917,-537.287 897.441,-504.346 887.557,-488.433"/>
<polygon fill="black" stroke="black" points="890.425,-486.424 882,-480 884.58,-490.276 890.425,-486.424"/>
<text text-anchor="middle" x="911" y="-512.8" font-family="Times New Roman,serif" font-size="9.00">22</text>
</g>
<!-- S20 -->
<g id="node66" class="node"><title>S20</title>
<ellipse fill="none" stroke="grey" cx="917" cy="-457" rx="18" ry="18"/>
<text text-anchor="middle" x="917" y="-454.8" font-family="Times New Roman,serif" font-size="9.00" fill="grey">22</text>
</g>
<!-- T6&#45;&gt;S20 -->
<g id="edge40" class="edge"><title>T6:T&#45;&gt;S20</title>
<path fill="none" stroke="grey" d="M945,-573C963.328,-573 942.517,-517.158 928.213,-483.299"/>
<polygon fill="grey" stroke="grey" points="931.377,-481.795 924.212,-473.99 924.945,-484.56 931.377,-481.795"/>
</g>
<!-- T8 -->
<g id="node8" class="node"><title>T8</title>
<polygon fill="none" stroke="black" points="683.5,-306.5 683.5,-375.5 796.5,-375.5 796.5,-306.5 683.5,-306.5"/>
<text text-anchor="middle" x="740" y="-360.3" font-family="Times New Roman,serif" font-size="14.00">path</text>
<polyline fill="none" stroke="black" points="683.5,-352.5 796.5,-352.5 "/>
<text text-anchor="middle" x="740" y="-337.3" font-family="Times New Roman,serif" font-size="14.00">ChangeExtension</text>
<polyline fill="none" stroke="black" points="683.5,-329.5 796.5,-329.5 "/>
<text text-anchor="middle" x="740" y="-314.3" font-family="Times New Roman,serif" font-size="14.00">path</text>
</g>
<!-- T7&#45;&gt;T8 -->
<g id="edge76" class="edge"><title>T7:O0&#45;&gt;T8:I0</title>
<path fill="none" stroke="black" d="M686,-434C717.644,-434 736.016,-415.613 739.421,-386.335"/>
<polygon fill="black" stroke="black" points="742.935,-386.18 740,-376 735.946,-385.789 742.935,-386.18"/>
<text text-anchor="middle" x="743" y="-396.8" font-family="Times New Roman,serif" font-size="9.00">22</text>
</g>
<!-- S22 -->
<g id="node70" class="node"><title>S22</title>
<ellipse fill="none" stroke="grey" cx="647" cy="-341" rx="18" ry="18"/>
<text text-anchor="middle" x="647" y="-338.8" font-family="Times New Roman,serif" font-size="9.00" fill="grey">22</text>
</g>
<!-- T7&#45;&gt;S22 -->
<g id="edge44" class="edge"><title>T7:T&#45;&gt;S22</title>
<path fill="none" stroke="grey" d="M686,-457C704.996,-457 677.921,-400.012 660.226,-366.27"/>
<polygon fill="grey" stroke="grey" points="663.099,-364.219 655.313,-357.034 656.919,-367.507 663.099,-364.219"/>
</g>
<!-- T9 -->
<g id="node9" class="node"><title>T9</title>
<polygon fill="none" stroke="black" points="777.5,-190.5 777.5,-259.5 870.5,-259.5 870.5,-190.5 777.5,-190.5"/>
<text text-anchor="middle" x="824" y="-244.3" font-family="Times New Roman,serif" font-size="14.00">text</text>
<polyline fill="none" stroke="black" points="777.5,-236.5 870.5,-236.5 "/>
<text text-anchor="middle" x="824" y="-221.3" font-family="Times New Roman,serif" font-size="14.00">HtmlFilename</text>
<polyline fill="none" stroke="black" points="777.5,-213.5 870.5,-213.5 "/>
<text text-anchor="middle" x="824" y="-198.3" font-family="Times New Roman,serif" font-size="14.00">text</text>
</g>
<!-- T8&#45;&gt;T9 -->
<g id="edge78" class="edge"><title>T8:O0&#45;&gt;T9:I0</title>
<path fill="none" stroke="black" d="M798,-318C800.704,-318 814.508,-286.071 820.83,-269.52"/>
<polygon fill="black" stroke="black" points="824.162,-270.594 824,-260 817.52,-268.382 824.162,-270.594"/>
<text text-anchor="middle" x="823" y="-280.8" font-family="Times New Roman,serif" font-size="9.00">22</text>
</g>
<!-- S23 -->
<g id="node72" class="node"><title>S23</title>
<ellipse fill="none" stroke="grey" cx="740" cy="-225" rx="18" ry="18"/>
<text text-anchor="middle" x="740" y="-222.8" font-family="Times New Roman,serif" font-size="9.00" fill="grey">22</text>
</g>
<!-- T8&#45;&gt;S23 -->
<g id="edge46" class="edge"><title>T8:T&#45;&gt;S23</title>
<path fill="none" stroke="grey" d="M798,-341C805.781,-341 800.267,-313.062 797,-306 791.979,-295.146 784.594,-297.238 777,-288 767.579,-276.539 758.96,-262.423 752.416,-250.556"/>
<polygon fill="grey" stroke="grey" points="755.438,-248.785 747.636,-241.616 749.264,-252.085 755.438,-248.785"/>
</g>
<!-- T10 -->
<g id="node10" class="node"><title>T10</title>
<polygon fill="none" stroke="black" points="1014.5,-74.5 1014.5,-143.5 1097.5,-143.5 1097.5,-74.5 1014.5,-74.5"/>
<text text-anchor="middle" x="1036" y="-128.3" font-family="Times New Roman,serif" font-size="14.00">path</text>
<polyline fill="none" stroke="black" points="1057.5,-120.5 1057.5,-143.5 "/>
<text text-anchor="middle" x="1077.5" y="-128.3" font-family="Times New Roman,serif" font-size="14.00">text</text>
<polyline fill="none" stroke="black" points="1014.5,-120.5 1097.5,-120.5 "/>
<text text-anchor="middle" x="1056" y="-105.3" font-family="Times New Roman,serif" font-size="14.00">SaveHTML</text>
<polyline fill="none" stroke="black" points="1014.5,-97.5 1097.5,-97.5 "/>
<text text-anchor="middle" x="1056" y="-82.3" font-family="Times New Roman,serif" font-size="14.00">path</text>
</g>
<!-- T9&#45;&gt;T10 -->
<g id="edge80" class="edge"><title>T9:O0&#45;&gt;T10:I0</title>
<path fill="none" stroke="black" d="M872,-202C878.667,-202 875.658,-193.988 881,-190 928.104,-154.837 958.89,-180.457 1005,-144 1006.26,-143.006 1006.98,-141.759 1007.47,-140.448"/>
<polygon fill="black" stroke="black" points="1010.45,-142.284 1013,-132 1004.59,-138.45 1010.45,-142.284"/>
<text text-anchor="middle" x="977" y="-164.8" font-family="Times New Roman,serif" font-size="9.00">22</text>
</g>
<!-- S24 -->
<g id="node74" class="node"><title>S24</title>
<ellipse fill="none" stroke="grey" cx="824" cy="-109" rx="18" ry="18"/>
<text text-anchor="middle" x="824" y="-106.8" font-family="Times New Roman,serif" font-size="9.00" fill="grey">22</text>
</g>
<!-- T9&#45;&gt;S24 -->
<g id="edge48" class="edge"><title>T9:T&#45;&gt;S24</title>
<path fill="none" stroke="grey" d="M872,-225C887.562,-225 875.299,-204.956 871,-190 864.863,-168.646 851.695,-147.079 840.854,-131.728"/>
<polygon fill="grey" stroke="grey" points="843.536,-129.466 834.811,-123.456 837.884,-133.595 843.536,-129.466"/>
</g>
<!-- T10&#45;&gt;T5 -->
<g id="edge70" class="edge"><title>T10:O0&#45;&gt;T5:O0</title>
<path fill="none" stroke="red" d="M1013,-86C1000.11,-86 1008.65,-132.27 1014,-144 1018.96,-154.882 1027.95,-151.682 1034,-162 1048.28,-186.373 1048,-195.751 1048,-224 1048,-574 1048,-574 1048,-574 1048,-582.542 1039.22,-637.422 1030.27,-658.118"/>
<polygon fill="red" stroke="red" points="1027.48,-655.994 1024,-666 1032.96,-660.351 1027.48,-655.994"/>
</g>
<!-- S27 -->
<g id="node80" class="node"><title>S27</title>
<ellipse fill="none" stroke="grey" cx="1056" cy="-18" rx="18" ry="18"/>
<text text-anchor="middle" x="1056" y="-15.8" font-family="Times New Roman,serif" font-size="9.00" fill="grey">22</text>
</g>
<!-- T10&#45;&gt;S27 -->
<g id="edge54" class="edge"><title>T10:T&#45;&gt;S27</title>
<path fill="none" stroke="grey" d="M1099,-109C1129.6,-109 1097.46,-66.1128 1074.62,-39.5491"/>
<polygon fill="grey" stroke="grey" points="1077.14,-37.1071 1067.91,-31.8948 1071.87,-41.7216 1077.14,-37.1071"/>
</g>
<!-- T12 -->
<g id="node12" class="node"><title>T12</title>
<polygon fill="none" stroke="black" points="869.5,-306.5 869.5,-375.5 946.5,-375.5 946.5,-306.5 869.5,-306.5"/>
<text text-anchor="middle" x="908" y="-360.3" font-family="Times New Roman,serif" font-size="14.00">md</text>
<polyline fill="none" stroke="black" points="869.5,-352.5 946.5,-352.5 "/>
<text text-anchor="middle" x="908" y="-337.3" font-family="Times New Roman,serif" font-size="14.00">Markdown</text>
<polyline fill="none" stroke="black" points="869.5,-329.5 946.5,-329.5 "/>
<text text-anchor="middle" x="908" y="-314.3" font-family="Times New Roman,serif" font-size="14.00">html</text>
</g>
<!-- T11&#45;&gt;T12 -->
<g id="edge82" class="edge"><title>T11:O0&#45;&gt;T12:I0</title>
<path fill="none" stroke="black" d="M882,-434C884.704,-434 898.508,-402.071 904.83,-385.52"/>
<polygon fill="black" stroke="black" points="908.162,-386.594 908,-376 901.52,-384.382 908.162,-386.594"/>
<text text-anchor="middle" x="907" y="-396.8" font-family="Times New Roman,serif" font-size="9.00">22</text>
</g>
<!-- S21 -->
<g id="node68" class="node"><title>S21</title>
<ellipse fill="none" stroke="grey" cx="833" cy="-341" rx="18" ry="18"/>
<text text-anchor="middle" x="833" y="-338.8" font-family="Times New Roman,serif" font-size="9.00" fill="grey">22</text>
</g>
<!-- T11&#45;&gt;S21 -->
<g id="edge42" class="edge"><title>T11:T&#45;&gt;S21</title>
<path fill="none" stroke="grey" d="M882,-457C889.781,-457 883.869,-429.233 881,-422 877.054,-412.05 871.057,-412.825 865,-404 857.074,-392.453 849.78,-378.689 844.163,-367.066"/>
<polygon fill="grey" stroke="grey" points="847.28,-365.468 839.863,-357.902 840.943,-368.442 847.28,-365.468"/>
</g>
<!-- T13 -->
<g id="node13" class="node"><title>T13</title>
<polygon fill="none" stroke="black" points="944,-190.5 944,-259.5 1012,-259.5 1012,-190.5 944,-190.5"/>
<text text-anchor="middle" x="978" y="-244.3" font-family="Times New Roman,serif" font-size="14.00">body</text>
<polyline fill="none" stroke="black" points="944,-236.5 1012,-236.5 "/>
<text text-anchor="middle" x="978" y="-221.3" font-family="Times New Roman,serif" font-size="14.00">Combine</text>
<polyline fill="none" stroke="black" points="944,-213.5 1012,-213.5 "/>
<text text-anchor="middle" x="978" y="-198.3" font-family="Times New Roman,serif" font-size="14.00">text</text>
</g>
<!-- T12&#45;&gt;T13 -->
<g id="edge84" class="edge"><title>T12:O0&#45;&gt;T13:I0</title>
<path fill="none" stroke="black" d="M948,-318C973.621,-318 977.386,-295.416 977.916,-270.155"/>
<polygon fill="black" stroke="black" points="981.417,-270.029 978,-260 974.417,-269.971 981.417,-270.029"/>
<text text-anchor="middle" x="983" y="-280.8" font-family="Times New Roman,serif" font-size="9.00">22</text>
</g>
<!-- S25 -->
<g id="node76" class="node"><title>S25</title>
<ellipse fill="none" stroke="grey" cx="908" cy="-225" rx="18" ry="18"/>
<text text-anchor="middle" x="908" y="-222.8" font-family="Times New Roman,serif" font-size="9.00" fill="grey">22</text>
</g>
<!-- T12&#45;&gt;S25 -->
<g id="edge50" class="edge"><title>T12:T&#45;&gt;S25</title>
<path fill="none" stroke="grey" d="M948,-341C963.562,-341 951.118,-321.007 947,-306 944.578,-297.175 941.163,-296.15 937,-288 930.853,-275.969 924.446,-262.395 919.223,-251.022"/>
<polygon fill="grey" stroke="grey" points="922.302,-249.339 914.973,-241.688 915.931,-252.239 922.302,-249.339"/>
</g>
<!-- T13&#45;&gt;T10 -->
<g id="edge86" class="edge"><title>T13:O0&#45;&gt;T10:I1</title>
<path fill="none" stroke="black" d="M1013,-202C1031.44,-202 1011.32,-175.381 1024,-162 1038.14,-147.083 1064.95,-161.224 1074.51,-153.482"/>
<polygon fill="black" stroke="black" points="1077.83,-154.593 1078,-144 1071.26,-152.174 1077.83,-154.593"/>
<text text-anchor="middle" x="1029" y="-164.8" font-family="Times New Roman,serif" font-size="9.00">22</text>
</g>
<!-- S26 -->
<g id="node78" class="node"><title>S26</title>
<ellipse fill="none" stroke="grey" cx="978" cy="-109" rx="18" ry="18"/>
<text text-anchor="middle" x="978" y="-106.8" font-family="Times New Roman,serif" font-size="9.00" fill="grey">22</text>
</g>
<!-- T13&#45;&gt;S26 -->
<g id="edge52" class="edge"><title>T13:T&#45;&gt;S26</title>
<path fill="none" stroke="grey" d="M1013,-225C1028.56,-225 1017.96,-204.377 1012,-190 1007.79,-179.834 1000.39,-181.592 995,-172 988.927,-161.2 984.924,-148.107 982.338,-136.741"/>
<polygon fill="grey" stroke="grey" points="985.761,-136.009 980.343,-126.904 978.901,-137.4 985.761,-136.009"/>
</g>
<!-- T15 -->
<g id="node15" class="node"><title>T15</title>
<polygon fill="none" stroke="black" points="176,-770.5 176,-839.5 246,-839.5 246,-770.5 176,-770.5"/>
<text text-anchor="middle" x="211" y="-824.3" font-family="Times New Roman,serif" font-size="14.00">path</text>
<polyline fill="none" stroke="black" points="176,-816.5 246,-816.5 "/>
<text text-anchor="middle" x="211" y="-801.3" font-family="Times New Roman,serif" font-size="14.00">SpecPath</text>
<polyline fill="none" stroke="black" points="176,-793.5 246,-793.5 "/>
<text text-anchor="middle" x="211" y="-778.3" font-family="Times New Roman,serif" font-size="14.00">path</text>
</g>
<!-- T14&#45;&gt;T15 -->
<g id="edge92" class="edge"><title>T14:O0&#45;&gt;T15:I0</title>
<path fill="none" stroke="black" d="M692,-898C524.669,-898 485.225,-866.46 320,-840 291.212,-835.39 281.932,-829.52 257.276,-828.25"/>
<polygon fill="black" stroke="black" points="257.082,-824.744 247,-828 256.912,-831.742 257.082,-824.744"/>
<text text-anchor="middle" x="460" y="-860.8" font-family="Times New Roman,serif" font-size="9.00">20</text>
</g>
<!-- T21 -->
<g id="node21" class="node"><title>T21</title>
<polygon fill="none" stroke="black" points="617,-770.5 617,-839.5 693,-839.5 693,-770.5 617,-770.5"/>
<text text-anchor="middle" x="655" y="-824.3" font-family="Times New Roman,serif" font-size="14.00">path</text>
<polyline fill="none" stroke="black" points="617,-816.5 693,-816.5 "/>
<text text-anchor="middle" x="655" y="-801.3" font-family="Times New Roman,serif" font-size="14.00">ToolName</text>
<polyline fill="none" stroke="black" points="617,-793.5 693,-793.5 "/>
<text text-anchor="middle" x="655" y="-778.3" font-family="Times New Roman,serif" font-size="14.00">name</text>
</g>
<!-- T14&#45;&gt;T21 -->
<g id="edge90" class="edge"><title>T14:O0&#45;&gt;T21:I0</title>
<path fill="none" stroke="black" d="M692,-898C664.887,-898 656.765,-876.438 655.273,-850.235"/>
<polygon fill="black" stroke="black" points="658.766,-849.903 655,-840 651.768,-850.09 658.766,-849.903"/>
<text text-anchor="middle" x="663" y="-860.8" font-family="Times New Roman,serif" font-size="9.00">20</text>
</g>
<!-- T26 -->
<g id="node26" class="node"><title>T26</title>
<polygon fill="none" stroke="black" points="329,-770.5 329,-839.5 433,-839.5 433,-770.5 329,-770.5"/>
<text text-anchor="middle" x="381" y="-824.3" font-family="Times New Roman,serif" font-size="14.00">path</text>
<polyline fill="none" stroke="black" points="329,-816.5 433,-816.5 "/>
<text text-anchor="middle" x="381" y="-801.3" font-family="Times New Roman,serif" font-size="14.00">LoadToolCode</text>
<polyline fill="none" stroke="black" points="329,-793.5 433,-793.5 "/>
<text text-anchor="middle" x="381" y="-778.3" font-family="Times New Roman,serif" font-size="14.00">text</text>
</g>
<!-- T14&#45;&gt;T26 -->
<g id="edge88" class="edge"><title>T14:O0&#45;&gt;T26:I0</title>
<path fill="none" stroke="black" d="M692,-898C576.669,-898 554.091,-832.041 444.194,-828.177"/>
<polygon fill="black" stroke="black" points="444.059,-824.674 434,-828 443.938,-831.673 444.059,-824.674"/>
<text text-anchor="middle" x="577" y="-860.8" font-family="Times New Roman,serif" font-size="9.00">20</text>
</g>
<!-- S3 -->
<g id="node32" class="node"><title>S3</title>
<ellipse fill="none" stroke="grey" cx="729" cy="-805" rx="18" ry="18"/>
<text text-anchor="middle" x="729" y="-802.8" font-family="Times New Roman,serif" font-size="9.00" fill="grey">32</text>
</g>
<!-- T14&#45;&gt;S3 -->
<g id="edge6" class="edge"><title>T14:T&#45;&gt;S3</title>
<path fill="none" stroke="grey" d="M766,-921C804.505,-921 768.752,-861.853 745.446,-828.395"/>
<polygon fill="grey" stroke="grey" points="748.201,-826.229 739.559,-820.101 742.493,-830.282 748.201,-826.229"/>
</g>
<!-- T16 -->
<g id="node16" class="node"><title>T16</title>
<polygon fill="none" stroke="black" points="38.5,-654.5 38.5,-723.5 117.5,-723.5 117.5,-654.5 38.5,-654.5"/>
<text text-anchor="middle" x="78" y="-708.3" font-family="Times New Roman,serif" font-size="14.00">path</text>
<polyline fill="none" stroke="black" points="38.5,-700.5 117.5,-700.5 "/>
<text text-anchor="middle" x="78" y="-685.3" font-family="Times New Roman,serif" font-size="14.00">SpecExists</text>
<polyline fill="none" stroke="black" points="38.5,-677.5 117.5,-677.5 "/>
<text text-anchor="middle" x="59" y="-662.3" font-family="Times New Roman,serif" font-size="14.00">yes</text>
<polyline fill="none" stroke="black" points="79.5,-654.5 79.5,-677.5 "/>
<text text-anchor="middle" x="98.5" y="-662.3" font-family="Times New Roman,serif" font-size="14.00">no</text>
</g>
<!-- T15&#45;&gt;T16 -->
<g id="edge94" class="edge"><title>T15:O0&#45;&gt;T16:I0</title>
<path fill="none" stroke="black" d="M175,-782C128.302,-782 84.5941,-775.284 78.6786,-733.978"/>
<polygon fill="black" stroke="black" points="82.1706,-733.739 78,-724 75.1867,-734.214 82.1706,-733.739"/>
<text text-anchor="middle" x="90" y="-744.8" font-family="Times New Roman,serif" font-size="9.00">20</text>
</g>
<!-- S8 -->
<g id="node42" class="node"><title>S8</title>
<ellipse fill="none" stroke="grey" cx="211" cy="-689" rx="18" ry="18"/>
<text text-anchor="middle" x="211" y="-686.8" font-family="Times New Roman,serif" font-size="9.00" fill="grey">20</text>
</g>
<!-- T15&#45;&gt;S8 -->
<g id="edge16" class="edge"><title>T15:T&#45;&gt;S8</title>
<path fill="none" stroke="grey" d="M247,-805C285.409,-805 250.211,-745.853 227.228,-712.395"/>
<polygon fill="grey" stroke="grey" points="230.024,-710.285 221.421,-704.101 224.29,-714.3 230.024,-710.285"/>
</g>
<!-- T17 -->
<g id="node17" class="node"><title>T17</title>
<polygon fill="none" stroke="black" points="0,-190.5 0,-259.5 74,-259.5 74,-190.5 0,-190.5"/>
<text text-anchor="middle" x="37" y="-244.3" font-family="Times New Roman,serif" font-size="14.00">any</text>
<polyline fill="none" stroke="black" points="0,-236.5 74,-236.5 "/>
<text text-anchor="middle" x="37" y="-221.3" font-family="Times New Roman,serif" font-size="14.00">BlackHole</text>
<polyline fill="none" stroke="black" points="0,-213.5 74,-213.5 "/>
<text text-anchor="middle" x="37" y="-198.3" font-family="Times New Roman,serif" font-size="14.00"> </text>
</g>
<!-- T16&#45;&gt;T17 -->
<g id="edge96" class="edge"><title>T16:O0&#45;&gt;T17:I0</title>
<path fill="none" stroke="black" d="M37,-666C-3.94923,-666 32,-614.949 32,-574 32,-574 32,-574 32,-340 32,-307.993 36.0359,-297.68 36.8558,-270.079"/>
<polygon fill="black" stroke="black" points="40.3564,-270.049 37,-260 33.3572,-269.949 40.3564,-270.049"/>
<text text-anchor="middle" x="34.5" y="-454.8" font-family="Times New Roman,serif" font-size="9.00">5</text>
</g>
<!-- T18 -->
<g id="node18" class="node"><title>T18</title>
<polygon fill="none" stroke="black" points="139.5,-422.5 139.5,-491.5 236.5,-491.5 236.5,-422.5 139.5,-422.5"/>
<text text-anchor="middle" x="165" y="-476.3" font-family="Times New Roman,serif" font-size="14.00">name</text>
<polyline fill="none" stroke="black" points="190.5,-468.5 190.5,-491.5 "/>
<text text-anchor="middle" x="213.5" y="-476.3" font-family="Times New Roman,serif" font-size="14.00">path</text>
<polyline fill="none" stroke="black" points="139.5,-468.5 236.5,-468.5 "/>
<text text-anchor="middle" x="188" y="-453.3" font-family="Times New Roman,serif" font-size="14.00">SpecTemplate</text>
<polyline fill="none" stroke="black" points="139.5,-445.5 236.5,-445.5 "/>
<text text-anchor="middle" x="188" y="-430.3" font-family="Times New Roman,serif" font-size="14.00">text</text>
</g>
<!-- T16&#45;&gt;T18 -->
<g id="edge102" class="edge"><title>T16:O1&#45;&gt;T18:I1</title>
<path fill="none" stroke="black" d="M119,-666C134.782,-666 130.088,-649.656 138,-636 138.965,-634.334 193.399,-532.722 209.537,-501.197"/>
<polygon fill="black" stroke="black" points="212.783,-502.525 214,-492 206.485,-499.469 212.783,-502.525"/>
<text text-anchor="middle" x="195" y="-570.8" font-family="Times New Roman,serif" font-size="9.00">15</text>
</g>
<!-- T19 -->
<g id="node19" class="node"><title>T19</title>
<polygon fill="none" stroke="black" points="74,-306.5 74,-375.5 152,-375.5 152,-306.5 74,-306.5"/>
<text text-anchor="middle" x="94.5" y="-360.3" font-family="Times New Roman,serif" font-size="14.00">path</text>
<polyline fill="none" stroke="black" points="115,-352.5 115,-375.5 "/>
<text text-anchor="middle" x="133.5" y="-360.3" font-family="Times New Roman,serif" font-size="14.00">text</text>
<polyline fill="none" stroke="black" points="74,-352.5 152,-352.5 "/>
<text text-anchor="middle" x="113" y="-337.3" font-family="Times New Roman,serif" font-size="14.00">SaveSpec</text>
<polyline fill="none" stroke="black" points="74,-329.5 152,-329.5 "/>
<text text-anchor="middle" x="113" y="-314.3" font-family="Times New Roman,serif" font-size="14.00">path</text>
</g>
<!-- T16&#45;&gt;T19 -->
<g id="edge98" class="edge"><title>T16:O1&#45;&gt;T19:I0</title>
<path fill="none" stroke="black" d="M99,-654C99,-644.624 107.461,-645.025 110,-636 111.204,-631.722 110.126,-630.443 110,-626 108.809,-584.041 97.4021,-427.758 94.613,-386.122"/>
<polygon fill="black" stroke="black" points="98.0982,-385.77 94,-376 91.111,-386.193 98.0982,-385.77"/>
<text text-anchor="middle" x="109" y="-512.8" font-family="Times New Roman,serif" font-size="9.00">15</text>
</g>
<!-- T20 -->
<g id="node20" class="node"><title>T20</title>
<polygon fill="none" stroke="black" points="231.5,-538.5 231.5,-607.5 314.5,-607.5 314.5,-538.5 231.5,-538.5"/>
<text text-anchor="middle" x="273" y="-592.3" font-family="Times New Roman,serif" font-size="14.00">path</text>
<polyline fill="none" stroke="black" points="231.5,-584.5 314.5,-584.5 "/>
<text text-anchor="middle" x="273" y="-569.3" font-family="Times New Roman,serif" font-size="14.00">ToolName2</text>
<polyline fill="none" stroke="black" points="231.5,-561.5 314.5,-561.5 "/>
<text text-anchor="middle" x="273" y="-546.3" font-family="Times New Roman,serif" font-size="14.00">name</text>
</g>
<!-- T16&#45;&gt;T20 -->
<g id="edge100" class="edge"><title>T16:O1&#45;&gt;T20:I0</title>
<path fill="none" stroke="black" d="M119,-666C134.927,-666 239.962,-635.864 266.777,-616.008"/>
<polygon fill="black" stroke="black" points="269.628,-618.044 273,-608 264.1,-613.749 269.628,-618.044"/>
<text text-anchor="middle" x="252" y="-628.8" font-family="Times New Roman,serif" font-size="9.00">15</text>
</g>
<!-- S9 -->
<g id="node44" class="node"><title>S9</title>
<ellipse fill="none" stroke="grey" cx="78" cy="-573" rx="18" ry="18"/>
<text text-anchor="middle" x="78" y="-570.8" font-family="Times New Roman,serif" font-size="9.00" fill="grey">20</text>
</g>
<!-- T16&#45;&gt;S9 -->
<g id="edge18" class="edge"><title>T16:T&#45;&gt;S9</title>
<path fill="none" stroke="grey" d="M119,-689C134.562,-689 121.791,-669.093 118,-654 117.247,-651.002 101.952,-620.776 90.4986,-598.358"/>
<polygon fill="grey" stroke="grey" points="93.5501,-596.638 85.8789,-589.33 87.3187,-599.827 93.5501,-596.638"/>
</g>
<!-- S13 -->
<g id="node52" class="node"><title>S13</title>
<ellipse fill="red" stroke="red" cx="37" cy="-109" rx="18" ry="18"/>
<text text-anchor="middle" x="37" y="-111.8" font-family="Times New Roman,serif" font-size="9.00" fill="white">+20</text>
<text text-anchor="middle" x="37" y="-101.8" font-family="Times New Roman,serif" font-size="9.00" fill="white">&#45;0</text>
</g>
<!-- T17&#45;&gt;S13 -->
<g id="edge26" class="edge"><title>T17:T&#45;&gt;S13</title>
<path fill="none" stroke="grey" d="M75,-225C93.8508,-225 67.6547,-168.587 50.2655,-134.783"/>
<polygon fill="grey" stroke="grey" points="53.1552,-132.755 45.4252,-125.509 46.9496,-135.994 53.1552,-132.755"/>
</g>
<!-- T18&#45;&gt;T19 -->
<g id="edge104" class="edge"><title>T18:O0&#45;&gt;T19:I1</title>
<path fill="none" stroke="black" d="M138,-434C115.492,-434 129.162,-409.596 133.06,-386.225"/>
<polygon fill="black" stroke="black" points="136.57,-386.278 134,-376 129.599,-385.638 136.57,-386.278"/>
<text text-anchor="middle" x="137" y="-396.8" font-family="Times New Roman,serif" font-size="9.00">15</text>
</g>
<!-- S11 -->
<g id="node48" class="node"><title>S11</title>
<ellipse fill="none" stroke="grey" cx="188" cy="-341" rx="18" ry="18"/>
<text text-anchor="middle" x="188" y="-338.8" font-family="Times New Roman,serif" font-size="9.00" fill="grey">15</text>
</g>
<!-- T18&#45;&gt;S11 -->
<g id="edge22" class="edge"><title>T18:T&#45;&gt;S11</title>
<path fill="none" stroke="grey" d="M238,-457C253.562,-457 241.436,-436.916 237,-422 230.596,-400.467 216.869,-378.914 205.568,-363.614"/>
<polygon fill="grey" stroke="grey" points="208.123,-361.193 199.269,-355.375 202.563,-365.445 208.123,-361.193"/>
</g>
<!-- T19&#45;&gt;T17 -->
<g id="edge106" class="edge"><title>T19:O0&#45;&gt;T17:I0</title>
<path fill="none" stroke="black" d="M73,-318C47.2256,-318 86.8561,-269.995 83.5646,-253.493"/>
<polygon fill="black" stroke="black" points="85.3071,-250.452 75,-248 81.5281,-256.345 85.3071,-250.452"/>
<text text-anchor="middle" x="81" y="-280.8" font-family="Times New Roman,serif" font-size="9.00">15</text>
</g>
<!-- S12 -->
<g id="node50" class="node"><title>S12</title>
<ellipse fill="none" stroke="grey" cx="113" cy="-225" rx="18" ry="18"/>
<text text-anchor="middle" x="113" y="-222.8" font-family="Times New Roman,serif" font-size="9.00" fill="grey">15</text>
</g>
<!-- T19&#45;&gt;S12 -->
<g id="edge24" class="edge"><title>T19:T&#45;&gt;S12</title>
<path fill="none" stroke="grey" d="M153,-341C172.129,-341 144.218,-283.522 126.219,-249.837"/>
<polygon fill="grey" stroke="grey" points="129.291,-248.161 121.452,-241.034 123.136,-251.494 129.291,-248.161"/>
</g>
<!-- T20&#45;&gt;T18 -->
<g id="edge108" class="edge"><title>T20:O0&#45;&gt;T18:I0</title>
<path fill="none" stroke="black" d="M230,-550C209.036,-550 220.795,-523.785 205,-510 193.984,-500.386 176.992,-506.034 169.184,-501.234"/>
<polygon fill="black" stroke="black" points="172.315,-499.664 165,-492 165.94,-502.553 172.315,-499.664"/>
<text text-anchor="middle" x="217" y="-512.8" font-family="Times New Roman,serif" font-size="9.00">15</text>
</g>
<!-- S10 -->
<g id="node46" class="node"><title>S10</title>
<ellipse fill="none" stroke="grey" cx="273" cy="-457" rx="18" ry="18"/>
<text text-anchor="middle" x="273" y="-454.8" font-family="Times New Roman,serif" font-size="9.00" fill="grey">15</text>
</g>
<!-- T20&#45;&gt;S10 -->
<g id="edge20" class="edge"><title>T20:T&#45;&gt;S10</title>
<path fill="none" stroke="grey" d="M316,-573C331.562,-573 318.941,-553.055 315,-538 309.638,-517.516 298.254,-496.391 288.688,-480.997"/>
<polygon fill="grey" stroke="grey" points="291.39,-478.728 283.038,-472.209 285.503,-482.513 291.39,-478.728"/>
</g>
<!-- T22 -->
<g id="node22" class="node"><title>T22</title>
<polygon fill="none" stroke="black" points="691,-654.5 691,-723.5 777,-723.5 777,-654.5 691,-654.5"/>
<text text-anchor="middle" x="734" y="-708.3" font-family="Times New Roman,serif" font-size="14.00">text</text>
<polyline fill="none" stroke="black" points="691,-700.5 777,-700.5 "/>
<text text-anchor="middle" x="734" y="-685.3" font-family="Times New Roman,serif" font-size="14.00">MdFilename</text>
<polyline fill="none" stroke="black" points="691,-677.5 777,-677.5 "/>
<text text-anchor="middle" x="734" y="-662.3" font-family="Times New Roman,serif" font-size="14.00">text</text>
</g>
<!-- T21&#45;&gt;T22 -->
<g id="edge112" class="edge"><title>T21:O0&#45;&gt;T22:I0</title>
<path fill="none" stroke="black" d="M694,-782C700.41,-782 698.392,-775.298 702,-770 713.829,-752.632 728.478,-749.555 732.767,-734.057"/>
<polygon fill="black" stroke="black" points="736.257,-734.352 734,-724 729.309,-733.5 736.257,-734.352"/>
<text text-anchor="middle" x="734" y="-744.8" font-family="Times New Roman,serif" font-size="9.00">20</text>
</g>
<!-- T24 -->
<g id="node24" class="node"><title>T24</title>
<polygon fill="none" stroke="black" points="547,-654.5 547,-723.5 619,-723.5 619,-654.5 547,-654.5"/>
<text text-anchor="middle" x="583" y="-708.3" font-family="Times New Roman,serif" font-size="14.00">text</text>
<polyline fill="none" stroke="black" points="547,-700.5 619,-700.5 "/>
<text text-anchor="middle" x="583" y="-685.3" font-family="Times New Roman,serif" font-size="14.00">MakeTitle</text>
<polyline fill="none" stroke="black" points="547,-677.5 619,-677.5 "/>
<text text-anchor="middle" x="583" y="-662.3" font-family="Times New Roman,serif" font-size="14.00">text</text>
</g>
<!-- T21&#45;&gt;T24 -->
<g id="edge110" class="edge"><title>T21:O0&#45;&gt;T24:I0</title>
<path fill="none" stroke="black" d="M616,-782C589.817,-782 584.145,-759.912 583.175,-734.329"/>
<polygon fill="black" stroke="black" points="586.669,-733.939 583,-724 579.67,-734.058 586.669,-733.939"/>
<text text-anchor="middle" x="590" y="-744.8" font-family="Times New Roman,serif" font-size="9.00">20</text>
</g>
<!-- S5 -->
<g id="node36" class="node"><title>S5</title>
<ellipse fill="none" stroke="grey" cx="655" cy="-689" rx="18" ry="18"/>
<text text-anchor="middle" x="655" y="-686.8" font-family="Times New Roman,serif" font-size="9.00" fill="grey">20</text>
</g>
<!-- T21&#45;&gt;S5 -->
<g id="edge10" class="edge"><title>T21:T&#45;&gt;S5</title>
<path fill="none" stroke="grey" d="M694,-805C712.996,-805 685.921,-748.012 668.226,-714.27"/>
<polygon fill="grey" stroke="grey" points="671.099,-712.219 663.313,-705.034 664.919,-715.507 671.099,-712.219"/>
</g>
<!-- T23 -->
<g id="node23" class="node"><title>T23</title>
<polygon fill="none" stroke="black" points="513,-422.5 513,-491.5 591,-491.5 591,-422.5 513,-422.5"/>
<text text-anchor="middle" x="533.5" y="-476.3" font-family="Times New Roman,serif" font-size="14.00">path</text>
<polyline fill="none" stroke="black" points="554,-468.5 554,-491.5 "/>
<text text-anchor="middle" x="572.5" y="-476.3" font-family="Times New Roman,serif" font-size="14.00">text</text>
<polyline fill="none" stroke="black" points="513,-468.5 591,-468.5 "/>
<text text-anchor="middle" x="552" y="-453.3" font-family="Times New Roman,serif" font-size="14.00">SaveMd</text>
<polyline fill="none" stroke="black" points="513,-445.5 591,-445.5 "/>
<text text-anchor="middle" x="552" y="-430.3" font-family="Times New Roman,serif" font-size="14.00">path</text>
</g>
<!-- T22&#45;&gt;T23 -->
<g id="edge114" class="edge"><title>T22:O0&#45;&gt;T23:I0</title>
<path fill="none" stroke="black" d="M778,-666C801.217,-666 824.883,-605.323 761,-538 753.182,-529.762 582.982,-510.453 541.876,-497.124"/>
<polygon fill="black" stroke="black" points="543.41,-493.968 533,-492 539.911,-500.031 543.41,-493.968"/>
<text text-anchor="middle" x="806" y="-570.8" font-family="Times New Roman,serif" font-size="9.00">20</text>
</g>
<!-- S7 -->
<g id="node40" class="node"><title>S7</title>
<ellipse fill="none" stroke="grey" cx="734" cy="-573" rx="18" ry="18"/>
<text text-anchor="middle" x="734" y="-570.8" font-family="Times New Roman,serif" font-size="9.00" fill="grey">20</text>
</g>
<!-- T22&#45;&gt;S7 -->
<g id="edge14" class="edge"><title>T22:T&#45;&gt;S7</title>
<path fill="none" stroke="grey" d="M778,-689C793.562,-689 781.014,-669.035 777,-654 771.51,-633.436 759.854,-612.316 750.062,-596.943"/>
<polygon fill="grey" stroke="grey" points="752.704,-594.592 744.277,-588.171 746.86,-598.446 752.704,-594.592"/>
</g>
<!-- T23&#45;&gt;T2 -->
<g id="edge62" class="edge"><title>T23:O0&#45;&gt;T2:O0</title>
<path fill="none" stroke="red" d="M592,-434C605.011,-434 591.159,-482.454 600,-492 628.074,-522.311 826,-453.635 826,-572 826,-922 826,-922 826,-922 826,-965.299 830.276,-1006.95 867.742,-1013.2"/>
<polygon fill="red" stroke="red" points="867.757,-1016.71 878,-1014 868.304,-1009.73 867.757,-1016.71"/>
</g>
<!-- S16 -->
<g id="node58" class="node"><title>S16</title>
<ellipse fill="none" stroke="grey" cx="552" cy="-341" rx="18" ry="18"/>
<text text-anchor="middle" x="552" y="-338.8" font-family="Times New Roman,serif" font-size="9.00" fill="grey">20</text>
</g>
<!-- T23&#45;&gt;S16 -->
<g id="edge32" class="edge"><title>T23:T&#45;&gt;S16</title>
<path fill="none" stroke="grey" d="M592,-457C611.129,-457 583.218,-399.522 565.219,-365.837"/>
<polygon fill="grey" stroke="grey" points="568.291,-364.161 560.452,-357.034 562.136,-367.494 568.291,-364.161"/>
</g>
<!-- T25 -->
<g id="node25" class="node"><title>T25</title>
<polygon fill="none" stroke="black" points="333,-538.5 333,-607.5 437,-607.5 437,-538.5 333,-538.5"/>
<text text-anchor="middle" x="351" y="-592.3" font-family="Times New Roman,serif" font-size="14.00">title</text>
<polyline fill="none" stroke="black" points="369,-584.5 369,-607.5 "/>
<text text-anchor="middle" x="403" y="-592.3" font-family="Times New Roman,serif" font-size="14.00">comment</text>
<polyline fill="none" stroke="black" points="333,-584.5 437,-584.5 "/>
<text text-anchor="middle" x="385" y="-569.3" font-family="Times New Roman,serif" font-size="14.00">Concat</text>
<polyline fill="none" stroke="black" points="333,-561.5 437,-561.5 "/>
<text text-anchor="middle" x="385" y="-546.3" font-family="Times New Roman,serif" font-size="14.00">text</text>
</g>
<!-- T24&#45;&gt;T25 -->
<g id="edge116" class="edge"><title>T24:O0&#45;&gt;T25:I0</title>
<path fill="none" stroke="black" d="M546,-666C539.333,-666 542.559,-657.681 537,-654 536.044,-653.367 398.744,-620.685 360.683,-610.783"/>
<polygon fill="black" stroke="black" points="361.578,-607.398 351,-608 359.644,-614.126 361.578,-607.398"/>
<text text-anchor="middle" x="466" y="-628.8" font-family="Times New Roman,serif" font-size="9.00">20</text>
</g>
<!-- S6 -->
<g id="node38" class="node"><title>S6</title>
<ellipse fill="none" stroke="grey" cx="583" cy="-573" rx="18" ry="18"/>
<text text-anchor="middle" x="583" y="-570.8" font-family="Times New Roman,serif" font-size="9.00" fill="grey">20</text>
</g>
<!-- T24&#45;&gt;S6 -->
<g id="edge12" class="edge"><title>T24:T&#45;&gt;S6</title>
<path fill="none" stroke="grey" d="M620,-689C638.803,-689 613.116,-632.587 596.037,-598.783"/>
<polygon fill="grey" stroke="grey" points="598.959,-596.811 591.282,-589.509 592.73,-600.005 598.959,-596.811"/>
</g>
<!-- T25&#45;&gt;T23 -->
<g id="edge118" class="edge"><title>T25:O0&#45;&gt;T23:I1</title>
<path fill="none" stroke="black" d="M438,-550C444.41,-550 440.957,-541.956 446,-538 490.283,-503.265 563.156,-545.992 572.093,-502.003"/>
<polygon fill="black" stroke="black" points="575.582,-502.275 573,-492 568.611,-501.643 575.582,-502.275"/>
<text text-anchor="middle" x="574" y="-512.8" font-family="Times New Roman,serif" font-size="9.00">20</text>
</g>
<!-- S15 -->
<g id="node56" class="node"><title>S15</title>
<ellipse fill="none" stroke="grey" cx="385" cy="-457" rx="18" ry="18"/>
<text text-anchor="middle" x="385" y="-454.8" font-family="Times New Roman,serif" font-size="9.00" fill="grey">20</text>
</g>
<!-- T25&#45;&gt;S15 -->
<g id="edge30" class="edge"><title>T25:T&#45;&gt;S15</title>
<path fill="none" stroke="grey" d="M438,-573C453.562,-573 441.636,-552.855 437,-538 430.089,-515.852 415.174,-493.992 403.083,-478.735"/>
<polygon fill="grey" stroke="grey" points="405.771,-476.493 396.725,-470.978 400.357,-480.93 405.771,-476.493"/>
</g>
<!-- T27 -->
<g id="node27" class="node"><title>T27</title>
<polygon fill="none" stroke="black" points="417.5,-654.5 417.5,-723.5 528.5,-723.5 528.5,-654.5 417.5,-654.5"/>
<text text-anchor="middle" x="473" y="-708.3" font-family="Times New Roman,serif" font-size="14.00">text</text>
<polyline fill="none" stroke="black" points="417.5,-700.5 528.5,-700.5 "/>
<text text-anchor="middle" x="473" y="-685.3" font-family="Times New Roman,serif" font-size="14.00">ExtractComment</text>
<polyline fill="none" stroke="black" points="417.5,-677.5 528.5,-677.5 "/>
<text text-anchor="middle" x="473" y="-662.3" font-family="Times New Roman,serif" font-size="14.00">comment</text>
</g>
<!-- T26&#45;&gt;T27 -->
<g id="edge120" class="edge"><title>T26:O0&#45;&gt;T27:I0</title>
<path fill="none" stroke="black" d="M434,-782C461.666,-782 470.987,-760.634 472.695,-734.015"/>
<polygon fill="black" stroke="black" points="476.194,-734.102 473,-724 469.197,-733.889 476.194,-734.102"/>
<text text-anchor="middle" x="477" y="-744.8" font-family="Times New Roman,serif" font-size="9.00">20</text>
</g>
<!-- S4 -->
<g id="node34" class="node"><title>S4</title>
<ellipse fill="none" stroke="grey" cx="381" cy="-689" rx="18" ry="18"/>
<text text-anchor="middle" x="381" y="-686.8" font-family="Times New Roman,serif" font-size="9.00" fill="grey">20</text>
</g>
<!-- T26&#45;&gt;S4 -->
<g id="edge8" class="edge"><title>T26:T&#45;&gt;S4</title>
<path fill="none" stroke="grey" d="M434,-805C449.562,-805 437.636,-784.855 433,-770 432.496,-768.386 411.471,-736.271 396.313,-713.229"/>
<polygon fill="grey" stroke="grey" points="399.071,-711.053 390.649,-704.625 393.225,-714.903 399.071,-711.053"/>
</g>
<!-- T27&#45;&gt;T25 -->
<g id="edge122" class="edge"><title>T27:O0&#45;&gt;T25:I1</title>
<path fill="none" stroke="black" d="M416,-666C410.866,-666 405.858,-634.943 403.883,-618.011"/>
<polygon fill="black" stroke="black" points="407.365,-617.654 403,-608 400.392,-618.269 407.365,-617.654"/>
<text text-anchor="middle" x="412" y="-628.8" font-family="Times New Roman,serif" font-size="9.00">20</text>
</g>
<!-- S14 -->
<g id="node54" class="node"><title>S14</title>
<ellipse fill="none" stroke="grey" cx="473" cy="-573" rx="18" ry="18"/>
<text text-anchor="middle" x="473" y="-570.8" font-family="Times New Roman,serif" font-size="9.00" fill="grey">20</text>
</g>
<!-- T27&#45;&gt;S14 -->
<g id="edge28" class="edge"><title>T27:T&#45;&gt;S14</title>
<path fill="none" stroke="grey" d="M530,-689C537.781,-689 532.176,-661.103 529,-654 524.252,-643.381 517.271,-645.08 510,-636 500.726,-624.419 492.119,-610.294 485.544,-598.453"/>
<polygon fill="grey" stroke="grey" points="488.562,-596.676 480.732,-589.538 482.402,-600 488.562,-596.676"/>
</g>
</g>
</svg>
