<?xml version="1.0" encoding="UTF-8" standalone="no"?>
<!DOCTYPE svg PUBLIC "-//W3C//DTD SVG 1.1//EN"
 "http://www.w3.org/Graphics/SVG/1.1/DTD/svg11.dtd">
<!-- Generated by graphviz version 2.28.0 (20110507.0327)
 -->
<!-- Title: Matis Pages: 1 -->
<svg width="266pt" height="984pt"
 viewBox="0.00 0.00 266.00 984.00" xmlns="http://www.w3.org/2000/svg" xmlns:xlink="http://www.w3.org/1999/xlink">
<g id="graph1" class="graph" transform="scale(1 1) rotate(0) translate(4 980)">
<title>Matis</title>
<polygon fill="white" stroke="white" points="-4,5 -4,-980 263,-980 263,5 -4,5"/>
<!-- T1 -->
<g id="node1" class="node"><title>T1</title>
<polygon fill="none" stroke="black" points="5,-906.5 5,-975.5 81,-975.5 81,-906.5 5,-906.5"/>
<text text-anchor="middle" x="43" y="-960.3" font-family="Times New Roman,serif" font-size="14.00">path</text>
<polyline fill="none" stroke="black" points="5,-952.5 81,-952.5 "/>
<text text-anchor="middle" x="43" y="-937.3" font-family="Times New Roman,serif" font-size="14.00">list&#45;tools&#45;1</text>
<polyline fill="none" stroke="black" points="5,-929.5 81,-929.5 "/>
<text text-anchor="middle" x="43" y="-914.3" font-family="Times New Roman,serif" font-size="14.00">files</text>
</g>
<!-- T2 -->
<g id="node2" class="node"><title>T2</title>
<polygon fill="none" stroke="black" points="1.5,-798.5 1.5,-867.5 84.5,-867.5 84.5,-798.5 1.5,-798.5"/>
<text text-anchor="middle" x="43" y="-852.3" font-family="Times New Roman,serif" font-size="14.00">text</text>
<polyline fill="none" stroke="black" points="1.5,-844.5 84.5,-844.5 "/>
<text text-anchor="middle" x="43" y="-829.3" font-family="Times New Roman,serif" font-size="14.00">ForEach&#45;10</text>
<polyline fill="none" stroke="black" points="1.5,-821.5 84.5,-821.5 "/>
<text text-anchor="middle" x="43" y="-806.3" font-family="Times New Roman,serif" font-size="14.00">text</text>
</g>
<!-- T1&#45;&gt;T2 -->
<g id="edge2" class="edge"><title>T1:O0&#45;&gt;T2:I0</title>
<path fill="none" stroke="black" d="M43,-906C43,-893.069 43,-887.564 43,-878.114"/>
<polygon fill="black" stroke="black" points="46.5001,-878 43,-868 39.5001,-878 46.5001,-878"/>
</g>
<!-- T3 -->
<g id="node3" class="node"><title>T3</title>
<polygon fill="none" stroke="black" points="0.5,-676.5 0.5,-745.5 85.5,-745.5 85.5,-676.5 0.5,-676.5"/>
<text text-anchor="middle" x="43" y="-730.3" font-family="Times New Roman,serif" font-size="14.00">void</text>
<polyline fill="none" stroke="black" points="0.5,-722.5 85.5,-722.5 "/>
<text text-anchor="middle" x="43" y="-707.3" font-family="Times New Roman,serif" font-size="14.00">doc&#45;path&#45;11</text>
<polyline fill="none" stroke="black" points="0.5,-699.5 85.5,-699.5 "/>
<text text-anchor="middle" x="43" y="-684.3" font-family="Times New Roman,serif" font-size="14.00">value</text>
</g>
<!-- T2&#45;&gt;T3 -->
<g id="edge4" class="edge"><title>T2:O0&#45;&gt;T3:I0</title>
<path fill="none" stroke="black" d="M43,-798C43,-778.681 43,-771.473 43,-756.128"/>
<polygon fill="black" stroke="black" points="46.5001,-756 43,-746 39.5001,-756 46.5001,-756"/>
</g>
<!-- T5 -->
<g id="node5" class="node"><title>T5</title>
<polygon fill="none" stroke="black" points="139.5,-676.5 139.5,-745.5 218.5,-745.5 218.5,-676.5 139.5,-676.5"/>
<text text-anchor="middle" x="179" y="-730.3" font-family="Times New Roman,serif" font-size="14.00">text</text>
<polyline fill="none" stroke="black" points="139.5,-722.5 218.5,-722.5 "/>
<text text-anchor="middle" x="179" y="-707.3" font-family="Times New Roman,serif" font-size="14.00">filter&#45;tool&#45;2</text>
<polyline fill="none" stroke="black" points="139.5,-699.5 218.5,-699.5 "/>
<text text-anchor="middle" x="160" y="-684.3" font-family="Times New Roman,serif" font-size="14.00">yes</text>
<polyline fill="none" stroke="black" points="180.5,-676.5 180.5,-699.5 "/>
<text text-anchor="middle" x="199.5" y="-684.3" font-family="Times New Roman,serif" font-size="14.00">no</text>
</g>
<!-- T2&#45;&gt;T5 -->
<g id="edge6" class="edge"><title>T2:T&#45;&gt;T5:T</title>
<path fill="none" stroke="green" d="M86,-833C141.143,-833 87.0322,-726.22 128.092,-712.455"/>
<polygon fill="green" stroke="green" points="128.615,-715.916 138,-711 127.598,-708.99 128.615,-715.916"/>
<text text-anchor="middle" x="126" y="-768.3" font-family="Times New Roman,serif" font-size="14.00">Uses</text>
</g>
<!-- T4 -->
<g id="node4" class="node"><title>T4</title>
<polygon fill="none" stroke="black" points="-0.5,-568.5 -0.5,-637.5 86.5,-637.5 86.5,-568.5 -0.5,-568.5"/>
<text text-anchor="middle" x="43" y="-622.3" font-family="Times New Roman,serif" font-size="14.00">path</text>
<polyline fill="none" stroke="black" points="-0.5,-614.5 86.5,-614.5 "/>
<text text-anchor="middle" x="43" y="-599.3" font-family="Times New Roman,serif" font-size="14.00">list&#45;pages&#45;12</text>
<polyline fill="none" stroke="black" points="-0.5,-591.5 86.5,-591.5 "/>
<text text-anchor="middle" x="43" y="-576.3" font-family="Times New Roman,serif" font-size="14.00">files</text>
</g>
<!-- T3&#45;&gt;T4 -->
<g id="edge8" class="edge"><title>T3:O0&#45;&gt;T4:I0</title>
<path fill="none" stroke="black" d="M43,-676C43,-663.069 43,-657.564 43,-648.114"/>
<polygon fill="black" stroke="black" points="46.5001,-648 43,-638 39.5001,-648 46.5001,-648"/>
</g>
<!-- T6 -->
<g id="node6" class="node"><title>T6</title>
<polygon fill="none" stroke="black" points="105,-568.5 105,-637.5 215,-637.5 215,-568.5 105,-568.5"/>
<text text-anchor="middle" x="160" y="-622.3" font-family="Times New Roman,serif" font-size="14.00">path</text>
<polyline fill="none" stroke="black" points="105,-614.5 215,-614.5 "/>
<text text-anchor="middle" x="160" y="-599.3" font-family="Times New Roman,serif" font-size="14.00">load&#45;tool&#45;code&#45;3</text>
<polyline fill="none" stroke="black" points="105,-591.5 215,-591.5 "/>
<text text-anchor="middle" x="133.5" y="-576.3" font-family="Times New Roman,serif" font-size="14.00">path</text>
<polyline fill="none" stroke="black" points="162,-568.5 162,-591.5 "/>
<text text-anchor="middle" x="188.5" y="-576.3" font-family="Times New Roman,serif" font-size="14.00">text</text>
</g>
<!-- T5&#45;&gt;T6 -->
<g id="edge10" class="edge"><title>T5:O0&#45;&gt;T6:I0</title>
<path fill="none" stroke="black" d="M160,-676C160,-663.069 160,-657.564 160,-648.114"/>
<polygon fill="black" stroke="black" points="163.5,-648 160,-638 156.5,-648 163.5,-648"/>
</g>
<!-- T7 -->
<g id="node7" class="node"><title>T7</title>
<polygon fill="none" stroke="black" points="79.5,-460.5 79.5,-529.5 162.5,-529.5 162.5,-460.5 79.5,-460.5"/>
<text text-anchor="middle" x="121" y="-514.3" font-family="Times New Roman,serif" font-size="14.00">path</text>
<polyline fill="none" stroke="black" points="79.5,-506.5 162.5,-506.5 "/>
<text text-anchor="middle" x="121" y="-491.3" font-family="Times New Roman,serif" font-size="14.00">tool&#45;name&#45;5</text>
<polyline fill="none" stroke="black" points="79.5,-483.5 162.5,-483.5 "/>
<text text-anchor="middle" x="121" y="-468.3" font-family="Times New Roman,serif" font-size="14.00">name</text>
</g>
<!-- T6&#45;&gt;T7 -->
<g id="edge12" class="edge"><title>T6:O0&#45;&gt;T7:I0</title>
<path fill="none" stroke="black" d="M133,-568C133,-554.302 125.822,-549.656 122.569,-540.06"/>
<polygon fill="black" stroke="black" points="125.999,-539.341 121,-530 119.083,-540.42 125.999,-539.341"/>
</g>
<!-- T12 -->
<g id="node12" class="node"><title>T12</title>
<polygon fill="none" stroke="black" points="136,-372.5 136,-441.5 258,-441.5 258,-372.5 136,-372.5"/>
<text text-anchor="middle" x="197" y="-426.3" font-family="Times New Roman,serif" font-size="14.00">text</text>
<polyline fill="none" stroke="black" points="136,-418.5 258,-418.5 "/>
<text text-anchor="middle" x="197" y="-403.3" font-family="Times New Roman,serif" font-size="14.00">extract&#45;comment&#45;4</text>
<polyline fill="none" stroke="black" points="136,-395.5 258,-395.5 "/>
<text text-anchor="middle" x="197" y="-380.3" font-family="Times New Roman,serif" font-size="14.00">comment</text>
</g>
<!-- T6&#45;&gt;T12 -->
<g id="edge14" class="edge"><title>T6:O1&#45;&gt;T12:I0</title>
<path fill="none" stroke="black" d="M189,-568C189,-515.394 196.031,-500 196.91,-452.046"/>
<polygon fill="black" stroke="black" points="200.41,-452.031 197,-442 193.411,-451.968 200.41,-452.031"/>
</g>
<!-- T8 -->
<g id="node8" class="node"><title>T8</title>
<polygon fill="none" stroke="black" points="4,-196.5 4,-265.5 100,-265.5 100,-196.5 4,-196.5"/>
<text text-anchor="middle" x="52" y="-250.3" font-family="Times New Roman,serif" font-size="14.00">text</text>
<polyline fill="none" stroke="black" points="4,-242.5 100,-242.5 "/>
<text text-anchor="middle" x="52" y="-227.3" font-family="Times New Roman,serif" font-size="14.00">md&#45;filename&#45;8</text>
<polyline fill="none" stroke="black" points="4,-219.5 100,-219.5 "/>
<text text-anchor="middle" x="52" y="-204.3" font-family="Times New Roman,serif" font-size="14.00">text</text>
</g>
<!-- T7&#45;&gt;T8 -->
<g id="edge18" class="edge"><title>T7:O0&#45;&gt;T8:I0</title>
<path fill="none" stroke="black" d="M78,-472C-10.9475,-472 47.4171,-366.351 51.751,-276.081"/>
<polygon fill="black" stroke="black" points="55.2519,-276.083 52,-266 48.254,-275.91 55.2519,-276.083"/>
</g>
<!-- T10 -->
<g id="node10" class="node"><title>T10</title>
<polygon fill="none" stroke="black" points="73.5,-284.5 73.5,-353.5 168.5,-353.5 168.5,-284.5 73.5,-284.5"/>
<text text-anchor="middle" x="121" y="-338.3" font-family="Times New Roman,serif" font-size="14.00">text</text>
<polyline fill="none" stroke="black" points="73.5,-330.5 168.5,-330.5 "/>
<text text-anchor="middle" x="121" y="-315.3" font-family="Times New Roman,serif" font-size="14.00">PrefixSuffix&#45;6</text>
<polyline fill="none" stroke="black" points="73.5,-307.5 168.5,-307.5 "/>
<text text-anchor="middle" x="121" y="-292.3" font-family="Times New Roman,serif" font-size="14.00">text</text>
</g>
<!-- T7&#45;&gt;T10 -->
<g id="edge16" class="edge"><title>T7:O0&#45;&gt;T10:I0</title>
<path fill="none" stroke="black" d="M121,-460C121,-416.569 121,-403.167 121,-364.428"/>
<polygon fill="black" stroke="black" points="124.5,-364 121,-354 117.5,-364 124.5,-364"/>
</g>
<!-- T9 -->
<g id="node9" class="node"><title>T9</title>
<polygon fill="none" stroke="black" points="57,-0.5 57,-69.5 135,-69.5 135,-0.5 57,-0.5"/>
<text text-anchor="middle" x="77.5" y="-54.3" font-family="Times New Roman,serif" font-size="14.00">path</text>
<polyline fill="none" stroke="black" points="98,-46.5 98,-69.5 "/>
<text text-anchor="middle" x="116.5" y="-54.3" font-family="Times New Roman,serif" font-size="14.00">text</text>
<polyline fill="none" stroke="black" points="57,-46.5 135,-46.5 "/>
<text text-anchor="middle" x="96" y="-31.3" font-family="Times New Roman,serif" font-size="14.00">save&#45;md&#45;9</text>
<polyline fill="none" stroke="black" points="57,-23.5 135,-23.5 "/>
<text text-anchor="middle" x="96" y="-8.3" font-family="Times New Roman,serif" font-size="14.00">path</text>
</g>
<!-- T8&#45;&gt;T9 -->
<g id="edge20" class="edge"><title>T8:O0&#45;&gt;T9:I0</title>
<path fill="none" stroke="black" d="M52,-196C52,-142.477 73.9727,-128.746 76.7192,-80.1962"/>
<polygon fill="black" stroke="black" points="80.2233,-80.0926 77,-70 73.226,-79.8998 80.2233,-80.0926"/>
</g>
<!-- T11 -->
<g id="node11" class="node"><title>T11</title>
<polygon fill="none" stroke="black" points="103,-108.5 103,-177.5 207,-177.5 207,-108.5 103,-108.5"/>
<text text-anchor="middle" x="121" y="-162.3" font-family="Times New Roman,serif" font-size="14.00">title</text>
<polyline fill="none" stroke="black" points="139,-154.5 139,-177.5 "/>
<text text-anchor="middle" x="173" y="-162.3" font-family="Times New Roman,serif" font-size="14.00">comment</text>
<polyline fill="none" stroke="black" points="103,-154.5 207,-154.5 "/>
<text text-anchor="middle" x="155" y="-139.3" font-family="Times New Roman,serif" font-size="14.00">concat&#45;7</text>
<polyline fill="none" stroke="black" points="103,-131.5 207,-131.5 "/>
<text text-anchor="middle" x="155" y="-116.3" font-family="Times New Roman,serif" font-size="14.00">text</text>
</g>
<!-- T10&#45;&gt;T11 -->
<g id="edge22" class="edge"><title>T10:O0&#45;&gt;T11:I0</title>
<path fill="none" stroke="black" d="M121,-284C121,-240.569 121,-227.167 121,-188.428"/>
<polygon fill="black" stroke="black" points="124.5,-188 121,-178 117.5,-188 124.5,-188"/>
</g>
<!-- T11&#45;&gt;T9 -->
<g id="edge24" class="edge"><title>T11:O0&#45;&gt;T9:I1</title>
<path fill="none" stroke="black" d="M155,-108C155,-88.3133 158.273,-66.9432 145.897,-60.1787"/>
<polygon fill="black" stroke="black" points="146.519,-56.7318 136,-58 145.014,-63.5681 146.519,-56.7318"/>
</g>
<!-- T12&#45;&gt;T11 -->
<g id="edge26" class="edge"><title>T12:O0&#45;&gt;T11:I1</title>
<path fill="none" stroke="black" d="M197,-372C197,-288.684 174.928,-266.652 173.118,-188.363"/>
<polygon fill="black" stroke="black" points="176.614,-187.96 173,-178 169.614,-188.039 176.614,-187.96"/>
</g>
</g>
</svg>
