<?xml version="1.0" encoding="UTF-8" standalone="no"?>
<!DOCTYPE svg PUBLIC "-//W3C//DTD SVG 1.1//EN"
 "http://www.w3.org/Graphics/SVG/1.1/DTD/svg11.dtd">
<!-- Generated by graphviz version 2.36.0 (20140111.2315)
 -->
<!-- Title: Matis Pages: 1 -->
<svg width="1058pt" height="622pt"
 viewBox="0.00 0.00 1057.91 622.00" xmlns="http://www.w3.org/2000/svg" xmlns:xlink="http://www.w3.org/1999/xlink">
<g id="graph0" class="graph" transform="scale(1 1) rotate(0) translate(4 618)">
<title>Matis</title>
<polygon fill="white" stroke="none" points="-4,4 -4,-618 1053.91,-618 1053.91,4 -4,4"/>
<g id="clust1" class="cluster"><title>cluster</title>
<polygon fill="none" stroke="black" points="267,-520 267,-606 1011,-606 1011,-520 267,-520"/>
</g>
<!-- T1 -->
<g id="node1" class="node"><title>T1</title>
<polygon fill="none" stroke="black" points="274.5,-528.5 274.5,-597.5 349.5,-597.5 349.5,-528.5 274.5,-528.5"/>
<text text-anchor="middle" x="312" y="-582.3" font-family="Times,serif" font-size="14.00">path</text>
<polyline fill="none" stroke="black" points="274.5,-574.5 349.5,-574.5 "/>
<text text-anchor="middle" x="312" y="-559.3" font-family="Times,serif" font-size="14.00">list&#45;tools&#45;1</text>
<polyline fill="none" stroke="black" points="274.5,-551.5 349.5,-551.5 "/>
<text text-anchor="middle" x="312" y="-536.3" font-family="Times,serif" font-size="14.00">files</text>
</g>
<!-- T2 -->
<g id="node2" class="node"><title>T2</title>
<polygon fill="none" stroke="black" points="83.5,-406.5 83.5,-475.5 172.5,-475.5 172.5,-406.5 83.5,-406.5"/>
<text text-anchor="middle" x="128" y="-460.3" font-family="Times,serif" font-size="14.00">text</text>
<polyline fill="none" stroke="black" points="83.5,-452.5 172.5,-452.5 "/>
<text text-anchor="middle" x="128" y="-437.3" font-family="Times,serif" font-size="14.00">foreach&#45;js&#45;10</text>
<polyline fill="none" stroke="black" points="83.5,-429.5 172.5,-429.5 "/>
<text text-anchor="middle" x="128" y="-414.3" font-family="Times,serif" font-size="14.00">path</text>
</g>
<!-- T1&#45;&gt;T2 -->
<g id="edge1" class="edge"><title>T1:O0&#45;&gt;T2:I0</title>
<path fill="none" stroke="black" d="M273,-540C243.352,-540 165.846,-528.896 143,-510 133.256,-501.941 129.64,-495.974 128.48,-486.207"/>
<polygon fill="black" stroke="black" points="131.966,-485.825 128,-476 124.974,-486.153 131.966,-485.825"/>
</g>
<!-- S1 -->
<g id="node24" class="node"><title>S1</title>
<ellipse fill="none" stroke="grey" cx="312" cy="-441" rx="18" ry="18"/>
<text text-anchor="middle" x="312" y="-438.8" font-family="Times,serif" font-size="9.00" fill="grey">1</text>
</g>
<!-- T1&#45;&gt;S1 -->
<g id="edge27" class="edge"><title>T1:T&#45;&gt;S1</title>
<path fill="none" stroke="grey" d="M351,-563C392.101,-563 352.77,-498.975 328.275,-464.07"/>
<polygon fill="grey" stroke="grey" points="331.086,-461.983 322.425,-455.88 325.389,-466.052 331.086,-461.983"/>
</g>
<!-- T3 -->
<g id="node3" class="node"><title>T3</title>
<polygon fill="none" stroke="black" points="8,-298.5 8,-367.5 90,-367.5 90,-298.5 8,-298.5"/>
<text text-anchor="middle" x="49" y="-352.3" font-family="Times,serif" font-size="14.00">void</text>
<polyline fill="none" stroke="black" points="8,-344.5 90,-344.5 "/>
<text text-anchor="middle" x="49" y="-329.3" font-family="Times,serif" font-size="14.00">doc&#45;path&#45;21</text>
<polyline fill="none" stroke="black" points="8,-321.5 90,-321.5 "/>
<text text-anchor="middle" x="49" y="-306.3" font-family="Times,serif" font-size="14.00">value</text>
</g>
<!-- T2&#45;&gt;T3 -->
<g id="edge2" class="edge"><title>T2:O0&#45;&gt;T3:I0</title>
<path fill="none" stroke="black" d="M82,-418C58.8063,-418 50.9798,-400.264 49.3475,-378.092"/>
<polygon fill="black" stroke="black" points="52.8421,-377.874 49,-368 45.8463,-378.115 52.8421,-377.874"/>
</g>
<!-- T16 -->
<g id="node16" class="node"><title>T16</title>
<polygon fill="none" stroke="black" points="923,-528.5 923,-597.5 1003,-597.5 1003,-528.5 923,-528.5"/>
<text text-anchor="middle" x="963" y="-582.3" font-family="Times,serif" font-size="14.00">text</text>
<polyline fill="none" stroke="black" points="923,-574.5 1003,-574.5 "/>
<text text-anchor="middle" x="963" y="-559.3" font-family="Times,serif" font-size="14.00">filter&#45;tool&#45;2</text>
<polyline fill="none" stroke="black" points="923,-551.5 1003,-551.5 "/>
<text text-anchor="middle" x="944" y="-536.3" font-family="Times,serif" font-size="14.00">yes</text>
<polyline fill="none" stroke="black" points="965,-528.5 965,-551.5 "/>
<text text-anchor="middle" x="984" y="-536.3" font-family="Times,serif" font-size="14.00">no</text>
</g>
<!-- T2&#45;&gt;T16 -->
<g id="edge3" class="edge"><title>T2:T&#45;&gt;T16:T</title>
<path fill="none" stroke="green" d="M174,-441C225.728,-441 234.526,-464.682 285,-476 351.981,-491.02 812.476,-557.509 911.737,-562.681"/>
<polygon fill="green" stroke="green" points="911.896,-566.187 922,-563 912.114,-559.191 911.896,-566.187"/>
<text text-anchor="middle" x="504" y="-498.3" font-family="Times,serif" font-size="14.00">path</text>
</g>
<!-- S2 -->
<g id="node25" class="node"><title>S2</title>
<ellipse fill="none" stroke="grey" cx="128" cy="-333" rx="19.2045" ry="19.6"/>
<text text-anchor="middle" x="128" y="-335.8" font-family="Times,serif" font-size="9.00" fill="red">+1</text>
<text text-anchor="middle" x="128" y="-325.8" font-family="Times,serif" font-size="9.00" fill="red">&#45;0</text>
</g>
<!-- T2&#45;&gt;S2 -->
<g id="edge28" class="edge"><title>T2:T&#45;&gt;S2</title>
<path fill="none" stroke="grey" d="M174,-441C189.562,-441 177.503,-420.896 173,-406 167.576,-388.059 156.439,-370.179 146.602,-356.724"/>
<polygon fill="grey" stroke="grey" points="149.238,-354.407 140.399,-348.566 143.666,-358.644 149.238,-354.407"/>
</g>
<!-- T4 -->
<g id="node4" class="node"><title>T4</title>
<polygon fill="none" stroke="black" points="6,-190.5 6,-259.5 92,-259.5 92,-190.5 6,-190.5"/>
<text text-anchor="middle" x="49" y="-244.3" font-family="Times,serif" font-size="14.00">path</text>
<polyline fill="none" stroke="black" points="6,-236.5 92,-236.5 "/>
<text text-anchor="middle" x="49" y="-221.3" font-family="Times,serif" font-size="14.00">list&#45;pages&#45;22</text>
<polyline fill="none" stroke="black" points="6,-213.5 92,-213.5 "/>
<text text-anchor="middle" x="49" y="-198.3" font-family="Times,serif" font-size="14.00">files</text>
</g>
<!-- T3&#45;&gt;T4 -->
<g id="edge4" class="edge"><title>T3:O0&#45;&gt;T4:I0</title>
<path fill="none" stroke="black" d="M49,-298C49,-285.069 49,-279.564 49,-270.114"/>
<polygon fill="black" stroke="black" points="52.5001,-270 49,-260 45.5001,-270 52.5001,-270"/>
</g>
<!-- T5 -->
<g id="node5" class="node"><title>T5</title>
<polygon fill="none" stroke="black" points="0,-82.5 0,-151.5 98,-151.5 98,-82.5 0,-82.5"/>
<text text-anchor="middle" x="49" y="-136.3" font-family="Times,serif" font-size="14.00">any</text>
<polyline fill="none" stroke="black" points="0,-128.5 98,-128.5 "/>
<text text-anchor="middle" x="49" y="-113.3" font-family="Times,serif" font-size="14.00">foreach&#45;md&#45;23</text>
<polyline fill="none" stroke="black" points="0,-105.5 98,-105.5 "/>
<text text-anchor="middle" x="49" y="-90.3" font-family="Times,serif" font-size="14.00">path</text>
</g>
<!-- T4&#45;&gt;T5 -->
<g id="edge5" class="edge"><title>T4:O0&#45;&gt;T5:I0</title>
<path fill="none" stroke="black" d="M49,-190C49,-177.069 49,-171.564 49,-162.114"/>
<polygon fill="black" stroke="black" points="52.5001,-162 49,-152 45.5001,-162 52.5001,-162"/>
</g>
<!-- T6 -->
<g id="node6" class="node"><title>T6</title>
<polygon fill="none" stroke="black" points="482,-528.5 482,-597.5 540,-597.5 540,-528.5 482,-528.5"/>
<text text-anchor="middle" x="511" y="-582.3" font-family="Times,serif" font-size="14.00">any</text>
<polyline fill="none" stroke="black" points="482,-574.5 540,-574.5 "/>
<text text-anchor="middle" x="511" y="-559.3" font-family="Times,serif" font-size="14.00">start&#45;11</text>
<polyline fill="none" stroke="black" points="482,-551.5 540,-551.5 "/>
<text text-anchor="middle" x="511" y="-536.3" font-family="Times,serif" font-size="14.00">any</text>
</g>
<!-- T5&#45;&gt;T6 -->
<g id="edge6" class="edge"><title>T5:T&#45;&gt;T6:T</title>
<path fill="none" stroke="green" d="M99,-117C218.122,-117 132.579,-265.338 193,-368 224.982,-422.342 234.48,-438.269 285,-476 320.645,-502.622 419.032,-555.365 470.719,-562.252"/>
<polygon fill="green" stroke="green" points="470.772,-565.765 481,-563 471.28,-558.784 470.772,-565.765"/>
<text text-anchor="middle" x="205" y="-329.3" font-family="Times,serif" font-size="14.00">path</text>
</g>
<!-- T7 -->
<g id="node7" class="node"><title>T7</title>
<polygon fill="none" stroke="black" points="348.5,-406.5 348.5,-475.5 437.5,-475.5 437.5,-406.5 348.5,-406.5"/>
<text text-anchor="middle" x="393" y="-460.3" font-family="Times,serif" font-size="14.00">path</text>
<polyline fill="none" stroke="black" points="348.5,-452.5 437.5,-452.5 "/>
<text text-anchor="middle" x="393" y="-437.3" font-family="Times,serif" font-size="14.00">basename&#45;15</text>
<polyline fill="none" stroke="black" points="348.5,-429.5 437.5,-429.5 "/>
<text text-anchor="middle" x="393" y="-414.3" font-family="Times,serif" font-size="14.00">basename</text>
</g>
<!-- T6&#45;&gt;T7 -->
<g id="edge9" class="edge"><title>T6:O0&#45;&gt;T7:I0</title>
<path fill="none" stroke="black" d="M481,-540C477.156,-540 455.831,-491.739 444.886,-472.133"/>
<polygon fill="black" stroke="black" points="447.698,-470.049 439,-464 442.027,-474.153 447.698,-470.049"/>
</g>
<!-- T11 -->
<g id="node11" class="node"><title>T11</title>
<polygon fill="none" stroke="black" points="456,-406.5 456,-475.5 566,-475.5 566,-406.5 456,-406.5"/>
<text text-anchor="middle" x="511" y="-460.3" font-family="Times,serif" font-size="14.00">path</text>
<polyline fill="none" stroke="black" points="456,-452.5 566,-452.5 "/>
<text text-anchor="middle" x="511" y="-437.3" font-family="Times,serif" font-size="14.00">load&#45;md&#45;code&#45;12</text>
<polyline fill="none" stroke="black" points="456,-429.5 566,-429.5 "/>
<text text-anchor="middle" x="511" y="-414.3" font-family="Times,serif" font-size="14.00">text</text>
</g>
<!-- T6&#45;&gt;T11 -->
<g id="edge8" class="edge"><title>T6:O0&#45;&gt;T11:I0</title>
<path fill="none" stroke="black" d="M511,-527C511,-508.229 511,-501.117 511,-486.354"/>
<polygon fill="black" stroke="black" points="514.5,-486 511,-476 507.5,-486 514.5,-486"/>
</g>
<!-- T14 -->
<g id="node14" class="node"><title>T14</title>
<polygon fill="none" stroke="black" points="584,-406.5 584,-475.5 700,-475.5 700,-406.5 584,-406.5"/>
<text text-anchor="middle" x="642" y="-460.3" font-family="Times,serif" font-size="14.00">void</text>
<polyline fill="none" stroke="black" points="584,-452.5 700,-452.5 "/>
<text text-anchor="middle" x="642" y="-437.3" font-family="Times,serif" font-size="14.00">template&#45;name&#45;17</text>
<polyline fill="none" stroke="black" points="584,-429.5 700,-429.5 "/>
<text text-anchor="middle" x="642" y="-414.3" font-family="Times,serif" font-size="14.00">value</text>
</g>
<!-- T6&#45;&gt;T14 -->
<g id="edge7" class="edge"><title>T6:O0&#45;&gt;T14:I0</title>
<path fill="none" stroke="black" d="M541,-540C544.844,-540 566.169,-491.739 577.114,-472.133"/>
<polygon fill="black" stroke="black" points="579.973,-474.153 583,-464 574.302,-470.049 579.973,-474.153"/>
</g>
<!-- T8 -->
<g id="node8" class="node"><title>T8</title>
<polygon fill="none" stroke="black" points="226,-298.5 226,-367.5 320,-367.5 320,-298.5 226,-298.5"/>
<text text-anchor="middle" x="273" y="-352.3" font-family="Times,serif" font-size="14.00">path</text>
<polyline fill="none" stroke="black" points="226,-344.5 320,-344.5 "/>
<text text-anchor="middle" x="273" y="-329.3" font-family="Times,serif" font-size="14.00">change&#45;ext&#45;16</text>
<polyline fill="none" stroke="black" points="226,-321.5 320,-321.5 "/>
<text text-anchor="middle" x="273" y="-306.3" font-family="Times,serif" font-size="14.00">path</text>
</g>
<!-- T7&#45;&gt;T8 -->
<g id="edge10" class="edge"><title>T7:O0&#45;&gt;T8:I0</title>
<path fill="none" stroke="black" d="M347,-418C341.252,-418 333.377,-381.285 326.649,-364.362"/>
<polygon fill="black" stroke="black" points="329.498,-362.327 321,-356 323.698,-366.246 329.498,-362.327"/>
</g>
<!-- T9 -->
<g id="node9" class="node"><title>T9</title>
<polygon fill="none" stroke="black" points="225.5,-190.5 225.5,-259.5 330.5,-259.5 330.5,-190.5 225.5,-190.5"/>
<text text-anchor="middle" x="278" y="-244.3" font-family="Times,serif" font-size="14.00">text</text>
<polyline fill="none" stroke="black" points="225.5,-236.5 330.5,-236.5 "/>
<text text-anchor="middle" x="278" y="-221.3" font-family="Times,serif" font-size="14.00">md&#45;filename&#45;14</text>
<polyline fill="none" stroke="black" points="225.5,-213.5 330.5,-213.5 "/>
<text text-anchor="middle" x="278" y="-198.3" font-family="Times,serif" font-size="14.00">text</text>
</g>
<!-- T8&#45;&gt;T9 -->
<g id="edge11" class="edge"><title>T8:O0&#45;&gt;T9:I0</title>
<path fill="none" stroke="black" d="M273,-298C273,-284.958 275.931,-279.597 277.305,-270.155"/>
<polygon fill="black" stroke="black" points="280.809,-270.216 278,-260 273.825,-269.738 280.809,-270.216"/>
</g>
<!-- T10 -->
<g id="node10" class="node"><title>T10</title>
<polygon fill="none" stroke="black" points="276,-82.5 276,-151.5 362,-151.5 362,-82.5 276,-82.5"/>
<text text-anchor="middle" x="298" y="-136.3" font-family="Times,serif" font-size="14.00">path</text>
<polyline fill="none" stroke="black" points="320,-128.5 320,-151.5 "/>
<text text-anchor="middle" x="341" y="-136.3" font-family="Times,serif" font-size="14.00">text</text>
<polyline fill="none" stroke="black" points="276,-128.5 362,-128.5 "/>
<text text-anchor="middle" x="319" y="-113.3" font-family="Times,serif" font-size="14.00">SaveText&#45;20</text>
<polyline fill="none" stroke="black" points="276,-105.5 362,-105.5 "/>
<text text-anchor="middle" x="319" y="-90.3" font-family="Times,serif" font-size="14.00">path</text>
</g>
<!-- T9&#45;&gt;T10 -->
<g id="edge12" class="edge"><title>T9:O0&#45;&gt;T10:I0</title>
<path fill="none" stroke="black" d="M278,-190C278,-174.941 290.452,-171.87 295.706,-161.869"/>
<polygon fill="black" stroke="black" points="299.145,-162.533 298,-152 292.326,-160.948 299.145,-162.533"/>
</g>
<!-- T12 -->
<g id="node12" class="node"><title>T12</title>
<polygon fill="none" stroke="black" points="338,-298.5 338,-367.5 398,-367.5 398,-298.5 338,-298.5"/>
<text text-anchor="middle" x="368" y="-352.3" font-family="Times,serif" font-size="14.00">md</text>
<polyline fill="none" stroke="black" points="338,-344.5 398,-344.5 "/>
<text text-anchor="middle" x="368" y="-329.3" font-family="Times,serif" font-size="14.00">Tool&#45;13</text>
<polyline fill="none" stroke="black" points="338,-321.5 398,-321.5 "/>
<text text-anchor="middle" x="368" y="-306.3" font-family="Times,serif" font-size="14.00">html</text>
</g>
<!-- T11&#45;&gt;T12 -->
<g id="edge13" class="edge"><title>T11:O0&#45;&gt;T12:I0</title>
<path fill="none" stroke="black" d="M455,-418C448.333,-418 450.401,-411.008 446,-406 430.025,-387.821 422.464,-386.615 407,-368 406.04,-366.844 405.443,-365.571 405.008,-364.299"/>
<polygon fill="black" stroke="black" points="407.699,-362.048 399,-356 402.029,-366.153 407.699,-362.048"/>
</g>
<!-- T13 -->
<g id="node13" class="node"><title>T13</title>
<polygon fill="none" stroke="black" points="349.5,-190.5 349.5,-259.5 450.5,-259.5 450.5,-190.5 349.5,-190.5"/>
<text text-anchor="middle" x="368" y="-244.3" font-family="Times,serif" font-size="14.00">text</text>
<polyline fill="none" stroke="black" points="386.5,-236.5 386.5,-259.5 "/>
<text text-anchor="middle" x="418.5" y="-244.3" font-family="Times,serif" font-size="14.00">template</text>
<polyline fill="none" stroke="black" points="349.5,-236.5 450.5,-236.5 "/>
<text text-anchor="middle" x="400" y="-221.3" font-family="Times,serif" font-size="14.00">combine&#45;19</text>
<polyline fill="none" stroke="black" points="349.5,-213.5 450.5,-213.5 "/>
<text text-anchor="middle" x="400" y="-198.3" font-family="Times,serif" font-size="14.00">text</text>
</g>
<!-- T12&#45;&gt;T13 -->
<g id="edge14" class="edge"><title>T12:O0&#45;&gt;T13:I0</title>
<path fill="none" stroke="black" d="M368,-298C368,-285.069 368,-279.564 368,-270.114"/>
<polygon fill="black" stroke="black" points="371.5,-270 368,-260 364.5,-270 371.5,-270"/>
</g>
<!-- T13&#45;&gt;T10 -->
<g id="edge15" class="edge"><title>T13:O0&#45;&gt;T10:I1</title>
<path fill="none" stroke="black" d="M348,-202C339.147,-202 339.907,-177.854 340.621,-162.156"/>
<polygon fill="black" stroke="black" points="344.125,-162.124 341,-152 337.13,-161.863 344.125,-162.124"/>
</g>
<!-- T15 -->
<g id="node15" class="node"><title>T15</title>
<polygon fill="none" stroke="black" points="416.5,-298.5 416.5,-367.5 493.5,-367.5 493.5,-298.5 416.5,-298.5"/>
<text text-anchor="middle" x="455" y="-352.3" font-family="Times,serif" font-size="14.00">path</text>
<polyline fill="none" stroke="black" points="416.5,-344.5 493.5,-344.5 "/>
<text text-anchor="middle" x="455" y="-329.3" font-family="Times,serif" font-size="14.00">load&#45;tpl&#45;18</text>
<polyline fill="none" stroke="black" points="416.5,-321.5 493.5,-321.5 "/>
<text text-anchor="middle" x="455" y="-306.3" font-family="Times,serif" font-size="14.00">text</text>
</g>
<!-- T14&#45;&gt;T15 -->
<g id="edge16" class="edge"><title>T14:O0&#45;&gt;T15:I0</title>
<path fill="none" stroke="black" d="M583,-418C576.59,-418 579.758,-410.295 575,-406 548.139,-381.757 529.861,-392.243 503,-368 501.81,-366.926 501.116,-365.64 500.644,-364.313"/>
<polygon fill="black" stroke="black" points="503.513,-362.308 495,-356 497.721,-366.239 503.513,-362.308"/>
</g>
<!-- T15&#45;&gt;T13 -->
<g id="edge17" class="edge"><title>T15:O0&#45;&gt;T13:I1</title>
<path fill="none" stroke="black" d="M455,-298C455,-278.916 430.775,-281.226 422.069,-269.83"/>
<polygon fill="black" stroke="black" points="425.321,-268.502 419,-260 418.64,-270.589 425.321,-268.502"/>
</g>
<!-- T17 -->
<g id="node17" class="node"><title>T17</title>
<polygon fill="none" stroke="black" points="718.5,-406.5 718.5,-475.5 801.5,-475.5 801.5,-406.5 718.5,-406.5"/>
<text text-anchor="middle" x="760" y="-460.3" font-family="Times,serif" font-size="14.00">path</text>
<polyline fill="none" stroke="black" points="718.5,-452.5 801.5,-452.5 "/>
<text text-anchor="middle" x="760" y="-437.3" font-family="Times,serif" font-size="14.00">tool&#45;name&#45;5</text>
<polyline fill="none" stroke="black" points="718.5,-429.5 801.5,-429.5 "/>
<text text-anchor="middle" x="760" y="-414.3" font-family="Times,serif" font-size="14.00">name</text>
</g>
<!-- T16&#45;&gt;T17 -->
<g id="edge19" class="edge"><title>T16:O0&#45;&gt;T17:I0</title>
<path fill="none" stroke="black" d="M922,-540C864.668,-540 850.72,-516.358 810,-476 809.041,-475.049 808.462,-473.94 808.078,-472.788"/>
<polygon fill="black" stroke="black" points="811.034,-470.907 803,-464 804.973,-474.41 811.034,-470.907"/>
</g>
<!-- T22 -->
<g id="node22" class="node"><title>T22</title>
<polygon fill="none" stroke="black" points="819.5,-406.5 819.5,-475.5 926.5,-475.5 926.5,-406.5 819.5,-406.5"/>
<text text-anchor="middle" x="873" y="-460.3" font-family="Times,serif" font-size="14.00">path</text>
<polyline fill="none" stroke="black" points="819.5,-452.5 926.5,-452.5 "/>
<text text-anchor="middle" x="873" y="-437.3" font-family="Times,serif" font-size="14.00">load&#45;tool&#45;code&#45;3</text>
<polyline fill="none" stroke="black" points="819.5,-429.5 926.5,-429.5 "/>
<text text-anchor="middle" x="873" y="-414.3" font-family="Times,serif" font-size="14.00">text</text>
</g>
<!-- T16&#45;&gt;T22 -->
<g id="edge18" class="edge"><title>T16:O0&#45;&gt;T22:I0</title>
<path fill="none" stroke="black" d="M922,-540C889.674,-540 875.789,-517.058 873.386,-486.257"/>
<polygon fill="black" stroke="black" points="876.873,-485.861 873,-476 869.878,-486.125 876.873,-485.861"/>
</g>
<!-- S3 -->
<g id="node26" class="node"><title>S3</title>
<ellipse fill="none" stroke="grey" cx="963" cy="-441" rx="18" ry="18"/>
<text text-anchor="middle" x="963" y="-438.8" font-family="Times,serif" font-size="9.00" fill="grey">31</text>
</g>
<!-- T16&#45;&gt;S3 -->
<g id="edge29" class="edge"><title>T16:T&#45;&gt;S3</title>
<path fill="none" stroke="grey" d="M1004,-563C1045.3,-563 1004.82,-498.975 979.685,-464.07"/>
<polygon fill="grey" stroke="grey" points="982.418,-461.878 973.684,-455.88 976.771,-466.015 982.418,-461.878"/>
</g>
<!-- T18 -->
<g id="node18" class="node"><title>T18</title>
<polygon fill="none" stroke="black" points="512,-298.5 512,-367.5 610,-367.5 610,-298.5 512,-298.5"/>
<text text-anchor="middle" x="561" y="-352.3" font-family="Times,serif" font-size="14.00">text</text>
<polyline fill="none" stroke="black" points="512,-344.5 610,-344.5 "/>
<text text-anchor="middle" x="561" y="-329.3" font-family="Times,serif" font-size="14.00">md&#45;filename&#45;8</text>
<polyline fill="none" stroke="black" points="512,-321.5 610,-321.5 "/>
<text text-anchor="middle" x="561" y="-306.3" font-family="Times,serif" font-size="14.00">text</text>
</g>
<!-- T17&#45;&gt;T18 -->
<g id="edge21" class="edge"><title>T17:O0&#45;&gt;T18:I0</title>
<path fill="none" stroke="black" d="M717,-418C710.333,-418 713.244,-410.116 708,-406 674.166,-379.446 652.085,-395.482 619,-368 617.767,-366.976 617.052,-365.714 616.571,-364.397"/>
<polygon fill="black" stroke="black" points="619.445,-362.398 611,-356 613.612,-366.268 619.445,-362.398"/>
</g>
<!-- T20 -->
<g id="node20" class="node"><title>T20</title>
<polygon fill="none" stroke="black" points="628.5,-298.5 628.5,-367.5 723.5,-367.5 723.5,-298.5 628.5,-298.5"/>
<text text-anchor="middle" x="676" y="-352.3" font-family="Times,serif" font-size="14.00">text</text>
<polyline fill="none" stroke="black" points="628.5,-344.5 723.5,-344.5 "/>
<text text-anchor="middle" x="676" y="-329.3" font-family="Times,serif" font-size="14.00">PrefixSuffix&#45;6</text>
<polyline fill="none" stroke="black" points="628.5,-321.5 723.5,-321.5 "/>
<text text-anchor="middle" x="676" y="-306.3" font-family="Times,serif" font-size="14.00">text</text>
</g>
<!-- T17&#45;&gt;T20 -->
<g id="edge20" class="edge"><title>T17:O0&#45;&gt;T20:I0</title>
<path fill="none" stroke="black" d="M717,-418C695.077,-418 730.031,-379.398 732.103,-363.112"/>
<polygon fill="black" stroke="black" points="734.543,-360.602 725,-356 729.59,-365.549 734.543,-360.602"/>
</g>
<!-- S5 -->
<g id="node28" class="node"><title>S5</title>
<ellipse fill="none" stroke="grey" cx="760" cy="-333" rx="18" ry="18"/>
<text text-anchor="middle" x="760" y="-330.8" font-family="Times,serif" font-size="9.00" fill="grey">19</text>
</g>
<!-- T17&#45;&gt;S5 -->
<g id="edge31" class="edge"><title>T17:T&#45;&gt;S5</title>
<path fill="none" stroke="grey" d="M803,-441C810.781,-441 804.138,-413.482 802,-406 796.814,-387.851 786.01,-369.506 776.659,-355.876"/>
<polygon fill="grey" stroke="grey" points="779.451,-353.762 770.797,-347.649 773.75,-357.824 779.451,-353.762"/>
</g>
<!-- T19 -->
<g id="node19" class="node"><title>T19</title>
<polygon fill="none" stroke="black" points="625.5,-82.5 625.5,-151.5 702.5,-151.5 702.5,-82.5 625.5,-82.5"/>
<text text-anchor="middle" x="645.5" y="-136.3" font-family="Times,serif" font-size="14.00">path</text>
<polyline fill="none" stroke="black" points="665.5,-128.5 665.5,-151.5 "/>
<text text-anchor="middle" x="684" y="-136.3" font-family="Times,serif" font-size="14.00">text</text>
<polyline fill="none" stroke="black" points="625.5,-128.5 702.5,-128.5 "/>
<text text-anchor="middle" x="664" y="-113.3" font-family="Times,serif" font-size="14.00">save&#45;md&#45;9</text>
<polyline fill="none" stroke="black" points="625.5,-105.5 702.5,-105.5 "/>
<text text-anchor="middle" x="664" y="-90.3" font-family="Times,serif" font-size="14.00">path</text>
</g>
<!-- T18&#45;&gt;T19 -->
<g id="edge22" class="edge"><title>T18:O0&#45;&gt;T19:I0</title>
<path fill="none" stroke="black" d="M611,-310C627.354,-310 611.042,-183.307 618.464,-148.664"/>
<polygon fill="black" stroke="black" points="621.565,-150.311 624,-140 615.666,-146.542 621.565,-150.311"/>
</g>
<!-- S7 -->
<g id="node30" class="node"><title>S7</title>
<ellipse fill="none" stroke="grey" cx="561" cy="-225" rx="18" ry="18"/>
<text text-anchor="middle" x="561" y="-222.8" font-family="Times,serif" font-size="9.00" fill="grey">19</text>
</g>
<!-- T18&#45;&gt;S7 -->
<g id="edge33" class="edge"><title>T18:T&#45;&gt;S7</title>
<path fill="none" stroke="grey" d="M611,-333C626.562,-333 614.793,-312.806 610,-298 603.753,-278.701 590.597,-259.856 579.488,-246.29"/>
<polygon fill="grey" stroke="grey" points="582.063,-243.915 572.917,-238.568 576.732,-248.451 582.063,-243.915"/>
</g>
<!-- S10 -->
<g id="node33" class="node"><title>S10</title>
<ellipse fill="none" stroke="grey" cx="664" cy="-22" rx="21.3824" ry="21.8409"/>
<text text-anchor="middle" x="664" y="-24.8" font-family="Times,serif" font-size="9.00" fill="red">+17</text>
<text text-anchor="middle" x="664" y="-14.8" font-family="Times,serif" font-size="9.00" fill="red">&#45;0</text>
</g>
<!-- T19&#45;&gt;S10 -->
<g id="edge36" class="edge"><title>T19:T&#45;&gt;S10</title>
<path fill="none" stroke="grey" d="M704,-117C734.378,-117 706.2,-74.9208 684.223,-47.07"/>
<polygon fill="grey" stroke="grey" points="686.675,-44.5343 677.674,-38.9458 681.225,-48.9277 686.675,-44.5343"/>
</g>
<!-- T21 -->
<g id="node21" class="node"><title>T21</title>
<polygon fill="none" stroke="black" points="712,-190.5 712,-259.5 818,-259.5 818,-190.5 712,-190.5"/>
<text text-anchor="middle" x="731" y="-244.3" font-family="Times,serif" font-size="14.00">title</text>
<polyline fill="none" stroke="black" points="750,-236.5 750,-259.5 "/>
<text text-anchor="middle" x="784" y="-244.3" font-family="Times,serif" font-size="14.00">comment</text>
<polyline fill="none" stroke="black" points="712,-236.5 818,-236.5 "/>
<text text-anchor="middle" x="765" y="-221.3" font-family="Times,serif" font-size="14.00">concat&#45;7</text>
<polyline fill="none" stroke="black" points="712,-213.5 818,-213.5 "/>
<text text-anchor="middle" x="765" y="-198.3" font-family="Times,serif" font-size="14.00">text</text>
</g>
<!-- T20&#45;&gt;T21 -->
<g id="edge23" class="edge"><title>T20:O0&#45;&gt;T21:I0</title>
<path fill="none" stroke="black" d="M725,-310C733.83,-310 732.461,-285.837 731.49,-270.145"/>
<polygon fill="black" stroke="black" points="734.979,-269.819 731,-260 727.987,-270.157 734.979,-269.819"/>
</g>
<!-- S6 -->
<g id="node29" class="node"><title>S6</title>
<ellipse fill="none" stroke="grey" cx="676" cy="-225" rx="18" ry="18"/>
<text text-anchor="middle" x="676" y="-222.8" font-family="Times,serif" font-size="9.00" fill="grey">19</text>
</g>
<!-- T20&#45;&gt;S6 -->
<g id="edge32" class="edge"><title>T20:T&#45;&gt;S6</title>
<path fill="none" stroke="grey" d="M725,-333C732.781,-333 727.432,-304.983 724,-298 718.427,-286.662 709.814,-289.927 702,-280 695.313,-271.505 689.77,-261.01 685.546,-251.538"/>
<polygon fill="grey" stroke="grey" points="688.713,-250.04 681.627,-242.164 682.255,-252.74 688.713,-250.04"/>
</g>
<!-- T21&#45;&gt;T19 -->
<g id="edge24" class="edge"><title>T21:O0&#45;&gt;T19:I1</title>
<path fill="none" stroke="black" d="M711,-202C700.439,-202 709.95,-166.027 708.955,-148.883"/>
<polygon fill="black" stroke="black" points="711.928,-147.028 704,-140 705.815,-150.438 711.928,-147.028"/>
</g>
<!-- S9 -->
<g id="node32" class="node"><title>S9</title>
<ellipse fill="none" stroke="grey" cx="765" cy="-117" rx="18" ry="18"/>
<text text-anchor="middle" x="765" y="-114.8" font-family="Times,serif" font-size="9.00" fill="grey">17</text>
</g>
<!-- T21&#45;&gt;S9 -->
<g id="edge35" class="edge"><title>T21:T&#45;&gt;S9</title>
<path fill="none" stroke="grey" d="M819,-225C857.393,-225 812.391,-169.416 784.263,-138.372"/>
<polygon fill="grey" stroke="grey" points="786.545,-135.683 777.198,-130.694 781.394,-140.423 786.545,-135.683"/>
</g>
<!-- T23 -->
<g id="node23" class="node"><title>T23</title>
<polygon fill="none" stroke="black" points="912.5,-298.5 912.5,-367.5 1033.5,-367.5 1033.5,-298.5 912.5,-298.5"/>
<text text-anchor="middle" x="973" y="-352.3" font-family="Times,serif" font-size="14.00">text</text>
<polyline fill="none" stroke="black" points="912.5,-344.5 1033.5,-344.5 "/>
<text text-anchor="middle" x="973" y="-329.3" font-family="Times,serif" font-size="14.00">extract&#45;comment&#45;4</text>
<polyline fill="none" stroke="black" points="912.5,-321.5 1033.5,-321.5 "/>
<text text-anchor="middle" x="973" y="-306.3" font-family="Times,serif" font-size="14.00">comment</text>
</g>
<!-- T22&#45;&gt;T23 -->
<g id="edge25" class="edge"><title>T22:O0&#45;&gt;T23:I0</title>
<path fill="none" stroke="black" d="M928,-418C933.352,-418 927.997,-411.258 927,-406 925.272,-396.882 924.421,-394.627 921,-386 917.703,-377.686 914.415,-376.612 912,-368 911.819,-367.356 911.585,-366.685 911.323,-366.005"/>
<polygon fill="black" stroke="black" points="914.821,-365.882 911,-356 907.824,-366.108 914.821,-365.882"/>
</g>
<!-- S4 -->
<g id="node27" class="node"><title>S4</title>
<ellipse fill="none" stroke="grey" cx="873" cy="-333" rx="21.3824" ry="21.8409"/>
<text text-anchor="middle" x="873" y="-335.8" font-family="Times,serif" font-size="9.00" fill="red">+19</text>
<text text-anchor="middle" x="873" y="-325.8" font-family="Times,serif" font-size="9.00" fill="red">&#45;18</text>
</g>
<!-- T22&#45;&gt;S4 -->
<g id="edge30" class="edge"><title>T22:T&#45;&gt;S4</title>
<path fill="none" stroke="grey" d="M928,-441C943.562,-441 932.131,-420.692 927,-406 923.325,-395.478 906.977,-374.325 893.222,-357.656"/>
<polygon fill="grey" stroke="grey" points="895.841,-355.332 886.744,-349.9 890.468,-359.819 895.841,-355.332"/>
</g>
<!-- T23&#45;&gt;T21 -->
<g id="edge26" class="edge"><title>T23:O0&#45;&gt;T21:I1</title>
<path fill="none" stroke="black" d="M911,-310C904.59,-310 907.647,-302.415 903,-298 874.088,-270.528 864.084,-251.36 829.029,-248.4"/>
<polygon fill="black" stroke="black" points="829.131,-244.901 819,-248 828.853,-251.895 829.131,-244.901"/>
</g>
<!-- S8 -->
<g id="node31" class="node"><title>S8</title>
<ellipse fill="none" stroke="grey" cx="973" cy="-225" rx="21.3824" ry="21.8409"/>
<text text-anchor="middle" x="973" y="-227.8" font-family="Times,serif" font-size="9.00" fill="red">+18</text>
<text text-anchor="middle" x="973" y="-217.8" font-family="Times,serif" font-size="9.00" fill="red">&#45;17</text>
</g>
<!-- T23&#45;&gt;S8 -->
<g id="edge34" class="edge"><title>T23:T&#45;&gt;S8</title>
<path fill="none" stroke="grey" d="M1035,-333C1073.79,-333 1026.94,-279.696 996.013,-248.333"/>
<polygon fill="grey" stroke="grey" points="998.102,-245.473 988.555,-240.878 993.153,-250.423 998.102,-245.473"/>
</g>
</g>
</svg>
